<svg width="84" height="84" viewBox="0 0 84 84" fill="none" xmlns="http://www.w3.org/2000/svg">
<path d="M0 42C0 18.804 18.804 0 42 0C65.196 0 84 18.804 84 42C84 65.196 65.196 84 42 84C18.804 84 0 65.196 0 42Z" fill="#1889B9"/>
<path d="M52.6666 54V51.3333C52.6666 49.9188 52.1047 48.5623 51.1045 47.5621C50.1043 46.5619 48.7477 46 47.3333 46H36.6666C35.2521 46 33.8955 46.5619 32.8953 47.5621C31.8952 48.5623 31.3333 49.9188 31.3333 51.3333V54" stroke="#FAFAFA" stroke-width="2.5" stroke-linecap="round" stroke-linejoin="round"/>
<path d="M42.0001 40.6667C44.9456 40.6667 47.3334 38.2789 47.3334 35.3333C47.3334 32.3878 44.9456 30 42.0001 30C39.0546 30 36.6667 32.3878 36.6667 35.3333C36.6667 38.2789 39.0546 40.6667 42.0001 40.6667Z" stroke="#FAFAFA" stroke-width="2.5" stroke-linecap="round" stroke-linejoin="round"/>
</svg>
