<svg width="200" height="165" viewBox="0 0 200 165" fill="none" xmlns="http://www.w3.org/2000/svg">
<g clip-path="url(#clip0_496_1710)">
<path d="M146.389 135.169C147.977 135.727 149.681 135.867 151.339 135.575C152.997 135.283 154.551 134.569 155.853 133.502C159.168 130.719 160.207 126.136 161.052 121.891L163.554 109.338L158.317 112.943C154.551 115.536 150.701 118.213 148.093 121.968C145.486 125.724 144.348 130.851 146.443 134.915" fill="#E6E6E6"/>
<path d="M146.836 150.368C146.306 146.507 145.761 142.597 146.133 138.695C146.463 135.229 147.521 131.845 149.673 129.069C150.815 127.599 152.206 126.339 153.781 125.347C154.192 125.087 154.57 125.739 154.161 125.997C151.435 127.719 149.327 130.263 148.14 133.262C146.829 136.596 146.618 140.231 146.844 143.772C146.981 145.914 147.27 148.042 147.562 150.168C147.585 150.264 147.571 150.365 147.522 150.451C147.473 150.537 147.394 150.601 147.299 150.63C147.203 150.656 147.1 150.643 147.014 150.594C146.927 150.545 146.863 150.464 146.836 150.368Z" fill="#F2F2F2"/>
<path d="M151.941 143.536C152.622 144.571 153.559 145.413 154.66 145.982C155.761 146.55 156.989 146.825 158.227 146.78C161.41 146.629 164.063 144.408 166.451 142.3L173.514 136.063L168.839 135.84C165.477 135.679 162.029 135.529 158.827 136.565C155.625 137.602 152.671 140.097 152.086 143.412" fill="#E6E6E6"/>
<path d="M145.338 152.587C147.889 148.073 150.848 143.056 156.136 141.453C157.606 141.009 159.147 140.849 160.677 140.984C161.159 141.026 161.039 141.769 160.557 141.727C157.993 141.514 155.434 142.192 153.31 143.645C151.266 145.036 149.675 146.97 148.329 149.02C147.504 150.276 146.765 151.586 146.026 152.893C145.79 153.311 145.099 153.01 145.338 152.587V152.587Z" fill="#F2F2F2"/>
<path d="M82.4635 120.876C79.334 121.976 75.974 122.251 72.7071 121.676C69.4402 121.101 66.3766 119.693 63.8113 117.59C57.2783 112.107 55.23 103.073 53.5634 94.7083C51.9202 86.4611 50.277 78.214 48.6338 69.9668L58.9543 77.0731C66.3763 82.1836 73.9654 87.4578 79.1043 94.86C84.2432 102.262 86.4864 112.367 82.3574 120.377" fill="#E6E6E6"/>
<path d="M81.5814 150.831C82.626 143.222 83.7001 135.515 82.9674 127.825C82.3167 120.995 80.233 114.324 75.9909 108.855C73.7392 105.957 70.9993 103.474 67.8944 101.518C67.0847 101.007 66.3396 102.29 67.1457 102.799C72.5181 106.194 76.6734 111.208 79.0126 117.117C81.5962 123.689 82.0111 130.852 81.5658 137.832C81.2966 142.054 80.726 146.248 80.151 150.436C80.1057 150.626 80.1339 150.825 80.2301 150.994C80.3263 151.164 80.4831 151.29 80.669 151.349C80.8587 151.4 81.0608 151.374 81.2316 151.277C81.4024 151.18 81.5281 151.02 81.5814 150.831Z" fill="#F2F2F2"/>
<path d="M71.5204 137.367C70.1782 139.407 68.3333 141.066 66.1634 142.186C63.9935 143.306 61.5717 143.849 59.1314 143.761C52.8599 143.463 47.6314 139.086 42.9248 134.93L29.0037 122.639L38.2172 122.198C44.843 121.881 51.6397 121.585 57.9506 123.629C64.2614 125.672 70.0816 130.589 71.2356 137.122" fill="#E6E6E6"/>
<path d="M84.5335 155.204C79.5057 146.308 73.674 136.421 63.2538 133.261C60.3564 132.385 57.3184 132.072 54.3032 132.337C53.3529 132.419 53.5902 133.884 54.5388 133.802C59.5928 133.382 64.6372 134.717 68.8225 137.581C72.8499 140.322 75.9858 144.133 78.6399 148.175C80.2656 150.651 81.7219 153.231 83.1784 155.809C83.6438 156.632 85.0044 156.038 84.5335 155.204Z" fill="#F2F2F2"/>
<path d="M45.7282 34.7638L2.43947 25.6944L1.87691 25.5768C1.59041 25.5163 1.29267 25.538 1.01793 25.6392C0.74318 25.7404 0.502589 25.9172 0.323818 26.1491C0.145048 26.381 0.0353626 26.6586 0.00736976 26.9501C-0.0206231 27.2415 0.0342186 27.535 0.165585 27.7967L17.538 62.5536C17.6504 62.7769 17.8148 62.9699 18.0174 63.1164C18.22 63.2629 18.4548 63.3586 18.7021 63.3954C18.9502 63.4325 19.2035 63.4086 19.4403 63.3258C19.6771 63.2431 19.8901 63.1039 20.061 62.9204L31.9091 50.2781C31.9933 50.1859 32.0958 50.1122 32.2099 50.0615C32.3241 50.0109 32.4475 49.9844 32.5724 49.9837C32.7422 49.9803 32.9096 50.0231 33.0569 50.1076C33.2042 50.1921 33.3258 50.315 33.4085 50.4632L35.8775 54.9658C36.0352 55.2661 36.2888 55.5049 36.5979 55.6444C36.9071 55.7838 37.254 55.8159 37.5834 55.7353L37.5956 55.7326C37.9291 55.6599 38.2284 55.4771 38.4455 55.2137C38.6626 54.9503 38.7849 54.6216 38.7926 54.2803L39.2199 43.8504C39.2249 43.7203 39.2567 43.5926 39.3131 43.4752C39.3738 43.3591 39.4564 43.2558 39.5565 43.1711L46.4012 37.484C46.6262 37.2971 46.794 37.0506 46.8853 36.7727C46.9766 36.4948 46.9878 36.1968 46.9175 35.9129C46.8473 35.6289 46.6984 35.3705 46.4881 35.1673C46.2777 34.9641 46.0144 34.8242 45.7282 34.7638V34.7638ZM46.0056 37.0064L39.1608 42.6934C39.0716 42.7662 38.9909 42.8487 38.9202 42.9395L2.36683 26.6229C2.33459 26.6082 2.30097 26.5966 2.26647 26.5884C2.12564 26.553 1.97687 26.5679 1.84589 26.6306C1.7149 26.6933 1.60994 26.7997 1.54915 26.9316C1.48836 27.0635 1.47555 27.2124 1.51296 27.3527C1.55037 27.4931 1.63564 27.6159 1.75401 27.7L31.859 49.5401C31.7074 49.6201 31.5707 49.7256 31.4549 49.8521L19.607 62.4943C19.5042 62.6037 19.3765 62.6868 19.2347 62.7363C19.093 62.7859 18.9413 62.8005 18.7927 62.7789C18.6441 62.7573 18.5029 62.7001 18.3811 62.6122C18.2593 62.5244 18.1605 62.4084 18.0931 62.2742L0.720722 27.5173C0.64305 27.3603 0.611049 27.1845 0.628367 27.0102C0.645684 26.8359 0.711628 26.6699 0.818676 26.5312C0.925724 26.3925 1.06957 26.2866 1.23384 26.2257C1.39811 26.1648 1.57619 26.1512 1.74779 26.1866L2.3237 26.3074L45.5989 35.3736C45.7707 35.4097 45.9289 35.4935 46.0553 35.6153C46.1818 35.7372 46.2713 35.8922 46.3137 36.0626C46.3562 36.233 46.3498 36.4118 46.2953 36.5787C46.2408 36.7457 46.1404 36.8939 46.0056 37.0064L46.0056 37.0064Z" fill="#CCCCCC"/>
<path d="M45.7282 34.7638L2.43947 25.6944L1.87691 25.5768C1.59041 25.5163 1.29267 25.538 1.01793 25.6392C0.74318 25.7404 0.502589 25.9172 0.323818 26.1491C0.145048 26.381 0.0353626 26.6586 0.00736976 26.9501C-0.0206231 27.2415 0.0342186 27.535 0.165585 27.7967L17.538 62.5536C17.6504 62.7769 17.8148 62.9699 18.0174 63.1164C18.22 63.2629 18.4548 63.3586 18.7021 63.3954C18.9502 63.4325 19.2035 63.4086 19.4403 63.3258C19.6771 63.2431 19.8901 63.1039 20.061 62.9204L31.9091 50.2781C31.9933 50.1859 32.0958 50.1122 32.2099 50.0615C32.3241 50.0109 32.4475 49.9844 32.5724 49.9837C32.7422 49.9803 32.9096 50.0231 33.0569 50.1076C33.2042 50.1921 33.3258 50.315 33.4085 50.4632L35.8775 54.9658C36.0352 55.2661 36.2888 55.5049 36.5979 55.6444C36.9071 55.7838 37.254 55.8159 37.5834 55.7353L37.5956 55.7326C37.9291 55.6599 38.2284 55.4771 38.4455 55.2137C38.6626 54.9503 38.7849 54.6216 38.7926 54.2803L39.2199 43.8504C39.2249 43.7203 39.2567 43.5926 39.3131 43.4752C39.3738 43.3591 39.4564 43.2558 39.5565 43.1711L46.4012 37.484C46.6262 37.2971 46.794 37.0506 46.8853 36.7727C46.9766 36.4948 46.9878 36.1968 46.9175 35.9129C46.8473 35.6289 46.6984 35.3705 46.4881 35.1673C46.2777 34.9641 46.0144 34.8242 45.7282 34.7638V34.7638ZM46.0056 37.0064L39.1608 42.6935C39.0716 42.7662 38.9909 42.8487 38.9201 42.9395C38.8563 43.0203 38.8014 43.1076 38.7561 43.2001C38.7087 43.2947 38.6715 43.394 38.6451 43.4964L38.6458 43.4994C38.6179 43.6061 38.6022 43.7156 38.5988 43.8259L38.1716 54.2557C38.1687 54.4608 38.0962 54.6587 37.9658 54.817C37.8355 54.9754 37.6552 55.0846 37.4545 55.1268L37.4484 55.1282C37.2507 55.1786 37.0418 55.1607 36.8556 55.0774C36.6694 54.9942 36.5167 54.8505 36.4224 54.6696L33.9528 50.164C33.8255 49.9323 33.6412 49.7369 33.4172 49.5964C33.1933 49.4559 32.9371 49.375 32.6731 49.3613L32.6701 49.3619C32.6346 49.3605 32.5992 49.3589 32.5645 49.3605C32.3183 49.362 32.0761 49.4237 31.8591 49.5401C31.7074 49.6201 31.5707 49.7256 31.455 49.8521L19.607 62.4943C19.5042 62.6037 19.3765 62.6868 19.2347 62.7363C19.093 62.7859 18.9413 62.8005 18.7927 62.7789C18.6441 62.7573 18.5029 62.7001 18.3811 62.6122C18.2593 62.5244 18.1605 62.4084 18.0931 62.2742L0.720722 27.5173C0.64305 27.3603 0.611049 27.1845 0.628367 27.0102C0.645684 26.8359 0.711628 26.6699 0.818676 26.5312C0.925724 26.3925 1.06957 26.2866 1.23384 26.2257C1.39811 26.1648 1.57619 26.1512 1.74779 26.1866L2.3237 26.3074L45.5989 35.3736C45.7707 35.4097 45.9289 35.4935 46.0553 35.6153C46.1818 35.7372 46.2713 35.8922 46.3137 36.0626C46.3562 36.233 46.3498 36.4118 46.2953 36.5787C46.2408 36.7457 46.1404 36.8939 46.0056 37.0064L46.0056 37.0064Z" fill="#3F3D56"/>
<path d="M39.0585 43.0005L38.8049 43.5685L38.6458 43.4994L38.6451 43.4964L2.12076 27.1956L32.6702 49.3619L32.6731 49.3613L32.754 49.4226L32.3903 49.9263L31.8591 49.5401L1.75403 27.7C1.63565 27.6159 1.55038 27.493 1.51297 27.3527C1.47556 27.2124 1.48835 27.0635 1.54914 26.9316C1.60994 26.7997 1.71491 26.6932 1.8459 26.6306C1.97689 26.5679 2.12567 26.553 2.2665 26.5884C2.301 26.5966 2.33462 26.6082 2.36687 26.6229L38.9202 42.9395L39.0585 43.0005Z" fill="#3F3D56"/>
<path d="M133.042 86.454L134.622 101.9L134.653 102.217L135.123 106.797L138.979 144.511V144.517L139.728 151.834C139.436 152.227 139.177 152.644 138.954 153.081C138.275 154.422 137.943 155.911 137.988 157.413C138.034 158.916 138.456 160.382 139.215 161.679C141.096 161.207 142.952 160.668 144.781 160.062C148.566 158.817 152.257 157.304 155.827 155.535C155.456 153.492 154.389 151.64 152.807 150.295L148.936 103.778L148.597 99.698L147.493 86.454H133.042Z" fill="#FFB8B8"/>
<path d="M144.115 44.3861C152.099 36.4018 152.099 23.4567 144.115 15.4724C136.13 7.48813 123.185 7.48814 115.201 15.4724C107.217 23.4567 107.217 36.4018 115.201 44.3861C123.185 52.3704 136.13 52.3704 144.115 44.3861Z" fill="#FFB8B8"/>
<path d="M91.5506 114.313C91.5537 114.354 91.5569 114.394 91.56 114.431C91.6279 115.229 91.9492 115.984 92.4767 116.586C93.0043 117.188 93.7106 117.605 94.4924 117.777L125.004 124.441C125.269 124.499 125.539 124.528 125.81 124.528C126.628 124.528 127.424 124.259 128.075 123.763C128.726 123.267 129.196 122.572 129.414 121.783C129.479 121.54 129.55 121.291 129.628 121.033V121.03C130.657 117.535 132.495 112.777 135.123 106.797C135.717 105.445 136.352 104.028 137.029 102.546C137.153 102.273 137.281 101.996 137.405 101.719C138.802 98.6874 140.359 95.4057 142.079 91.8742C142.921 90.1479 143.556 88.3287 143.973 86.4541C145.081 81.5051 144.643 76.3354 142.72 71.6429C142.328 70.6876 141.876 69.758 141.367 68.8597C139.359 65.3194 136.513 62.3255 133.079 60.1401C129.646 57.9548 125.728 56.6448 121.671 56.3248C121.027 56.2719 120.386 56.2471 119.743 56.2471C113.304 56.2754 107.124 58.7834 102.487 63.25C99.7509 65.9031 97.6732 69.1597 96.4203 72.7592C96.3395 72.9862 96.2648 73.2163 96.1903 73.4465C95.0414 77.0885 94.1192 80.7981 93.4288 84.5541C93.0153 86.7837 92.6795 88.9822 92.4089 91.1247C91.4606 98.8155 91.1734 106.573 91.5506 114.313Z" fill="#1889B9"/>
<path d="M78.114 153.383C96.6509 163.919 118.54 166.891 139.215 161.679C141.097 161.207 142.952 160.668 144.782 160.062C143.158 154.77 141.221 149.579 138.979 144.517V144.511C135.241 136.13 131.808 131.003 130.135 128.739C129.86 128.364 129.679 127.929 129.607 127.469C129.535 127.01 129.574 126.54 129.722 126.099L130.241 124.541C130.439 123.951 130.486 123.322 130.379 122.709C130.272 122.097 130.014 121.521 129.628 121.033V121.03C129.594 120.987 129.557 120.943 129.519 120.899C115.927 105.414 92.2319 113.862 91.9924 113.949L91.8742 113.993L91.7996 114.096C91.7187 114.208 91.6379 114.316 91.5602 114.431C85.1356 123.434 80.8661 137.272 78.114 153.383Z" fill="#2F2E41"/>
<path d="M50.1753 53.6783C50.2775 54.1275 50.3441 54.584 50.3745 55.0436L86.133 75.6726L94.8247 70.669L104.09 82.7992L89.5645 93.1524C88.3909 93.9888 86.9778 94.422 85.5372 94.3869C84.0965 94.3518 82.7061 93.8503 81.5747 92.9578L44.7015 63.8682C43.0374 64.4842 41.2253 64.579 39.506 64.1399C37.7868 63.7008 36.2419 62.7487 35.077 61.4103C33.9121 60.0718 33.1822 58.4104 32.9846 56.647C32.7869 54.8836 33.1308 53.1018 33.9705 51.5387C34.8102 49.9755 36.1059 48.705 37.6853 47.8962C39.2646 47.0874 41.0528 46.7786 42.812 47.0109C44.5711 47.2431 46.2179 48.0055 47.5332 49.1965C48.8485 50.3875 49.7701 51.9508 50.1753 53.6783Z" fill="#FFB8B8"/>
<path d="M86.6811 75.3558V75.3589C86.8107 75.827 87.0304 76.2654 87.3279 76.6494L93.4289 84.5541L96.3364 88.3261L98.8864 91.6285C99.2151 92.0546 99.6318 92.4049 100.108 92.6555C100.584 92.9061 101.109 93.0511 101.647 93.0806C102.184 93.1101 102.721 93.0235 103.222 92.8266C103.723 92.6296 104.176 92.327 104.549 91.9394L113.809 82.3245L117.631 78.3535C119.803 76.6591 121.214 74.1728 121.555 71.4397C121.896 68.7066 121.139 65.9498 119.45 63.7738C117.762 61.5978 115.279 60.1803 112.547 59.832C109.815 59.4837 107.056 60.2332 104.876 61.9159L102.487 63.25L88.466 71.0925C87.7355 71.5021 87.1629 72.1443 86.8395 72.9168C86.5161 73.6894 86.4603 74.5479 86.6811 75.3558H86.6811Z" fill="#1889B9"/>
<path d="M127.125 80.3125L127.709 98.9859L127.712 99.1041C127.729 99.6423 127.861 100.171 128.101 100.653C128.34 101.136 128.681 101.561 129.099 101.899C129.518 102.238 130.004 102.483 130.526 102.617C131.048 102.75 131.592 102.77 132.122 102.674L134.653 102.217L135.3 102.099H135.303L137.405 101.719L148.597 99.698L150.739 99.3124C151.269 99.2161 151.771 99.007 152.213 98.6993C152.654 98.3916 153.024 97.9924 153.298 97.5289C153.571 97.0655 153.742 96.5486 153.798 96.0134C153.854 95.4782 153.794 94.9372 153.622 94.4272L147.586 76.5561C147.082 73.849 145.524 71.4525 143.255 69.892C140.986 68.3316 138.191 67.7345 135.482 68.2318C132.774 68.729 130.373 70.28 128.807 72.5446C127.24 74.8092 126.635 77.6027 127.125 80.3125Z" fill="#1889B9"/>
<path d="M126.422 25.2266C121.167 28.8231 114.267 32.52 108.9 28.6901C105.376 26.1753 104.266 21.5184 105.695 17.4317C108.265 10.0827 115.326 6.84728 122.078 4.36728C130.855 1.14328 140.412 -1.42156 149.473 0.887309C158.535 3.19618 166.543 11.9692 164.907 21.1758C163.591 28.5795 156.608 34.74 157.599 42.194C158.597 49.6959 167.034 53.6447 174.482 54.9854C181.93 56.3262 190.265 56.757 195.618 62.1069C202.446 68.9318 200.741 81.1304 194.316 88.3361C187.89 95.5417 178.194 98.808 168.799 101.028C156.35 103.97 142.886 105.517 131.063 100.634C119.241 95.7516 110.04 82.6086 113.465 70.2843C114.912 65.0785 118.32 60.6789 121.613 56.3958C124.907 52.1126 128.242 47.6337 129.498 42.3788C130.545 37.9997 129.77 32.9153 126.866 29.6304C126.338 29.0555 126.006 28.3279 125.917 27.5523C125.828 26.7766 125.987 25.9927 126.371 25.3131L126.422 25.2266Z" fill="#2F2E41"/>
</g>
<defs>
<clipPath id="clip0_496_1710">
<rect width="200" height="164.189" fill="white"/>
</clipPath>
</defs>
</svg>
