<svg width="234" height="238" viewBox="0 0 234 238" fill="none" xmlns="http://www.w3.org/2000/svg">
<g clip-path="url(#clip0_53_571)">
<path d="M75.8401 144.688C75.0785 144.688 74.3091 144.676 73.554 144.652L73.5712 144.102C74.6555 144.136 75.7621 144.146 76.8515 144.131L76.859 144.681C76.5199 144.685 76.1803 144.688 75.8401 144.688ZM80.1621 144.56L80.1299 144.011C81.2159 143.947 82.3158 143.857 83.399 143.743L83.4564 144.29C82.3648 144.405 81.2566 144.496 80.1621 144.56ZM70.2538 144.475C69.1588 144.39 68.0522 144.28 66.9646 144.147L67.0317 143.601C68.1109 143.733 69.2089 143.843 70.2956 143.926L70.2538 144.475ZM86.7346 143.87L86.6523 143.326C87.7312 143.162 88.8185 142.971 89.883 142.759L89.99 143.299C88.9172 143.512 87.8219 143.704 86.7346 143.87ZM63.6944 143.668C62.6126 143.485 61.5206 143.273 60.4489 143.04L60.5653 142.503C61.6289 142.734 62.7124 142.944 63.786 143.126L63.6944 143.668ZM93.2164 142.579L93.0845 142.045C94.1437 141.782 95.2087 141.492 96.2501 141.183L96.4062 141.71C95.3567 142.022 94.2836 142.314 93.2164 142.579ZM57.236 142.263C56.1748 141.98 55.107 141.669 54.062 141.338L54.2274 140.814C55.2645 141.142 56.3241 141.451 57.377 141.731L57.236 142.263ZM99.5524 140.695L99.3723 140.175C100.4 139.817 101.434 139.43 102.445 139.025L102.649 139.536C101.63 139.944 100.588 140.334 99.5525 140.695H99.5524ZM50.9259 140.264C49.8953 139.885 48.8583 139.475 47.844 139.047L48.0571 138.54C49.0637 138.964 50.0926 139.371 51.1155 139.748L50.9259 140.264ZM105.682 138.237L105.454 137.737C106.441 137.287 107.434 136.807 108.403 136.311L108.653 136.801C107.676 137.301 106.676 137.784 105.682 138.237H105.682ZM111.556 135.228L111.284 134.751C112.23 134.21 113.175 133.641 114.092 133.06L114.385 133.524C113.462 134.11 112.51 134.683 111.556 135.228H111.556ZM117.134 131.692L116.82 131.241C117.712 130.617 118.601 129.963 119.464 129.299L119.798 129.735C118.929 130.405 118.033 131.063 117.134 131.692ZM33.4596 130.917C32.5736 130.272 31.6884 129.596 30.8286 128.909L31.1711 128.479C32.0244 129.161 32.9028 129.832 33.7821 130.472L33.4596 130.917ZM122.371 127.659L122.017 127.238C122.848 126.535 123.675 125.803 124.475 125.062L124.847 125.466C124.041 126.213 123.208 126.951 122.371 127.659H122.371ZM28.2921 126.782C27.4669 126.058 26.647 125.305 25.8554 124.543L26.2355 124.146C27.0212 124.902 27.8348 125.65 28.6538 126.369L28.2921 126.782ZM127.222 123.162L126.831 122.776C127.597 121.998 128.355 121.193 129.083 120.384L129.491 120.752C128.757 121.568 127.994 122.379 127.222 123.162ZM23.5235 122.196C22.7663 121.398 22.0185 120.574 21.3009 119.745L21.7156 119.385C22.4277 120.207 23.1698 121.025 23.9213 121.817L23.5235 122.196ZM131.647 118.241L131.223 117.891C131.915 117.048 132.596 116.177 133.248 115.303L133.688 115.633C133.031 116.513 132.345 117.391 131.647 118.241L131.647 118.241ZM19.1925 117.196C18.5125 116.335 17.843 115.446 17.2025 114.554L17.648 114.233C18.2837 115.118 18.9481 116 19.623 116.855L19.1925 117.196ZM135.608 112.933L135.154 112.624C135.766 111.721 136.366 110.791 136.936 109.861L137.404 110.149C136.829 111.086 136.225 112.023 135.608 112.933L135.608 112.933ZM15.3354 111.825C14.7372 110.906 14.1518 109.961 13.5951 109.014L14.068 108.735C14.6205 109.674 15.2015 110.612 15.7951 111.524L15.3354 111.825ZM139.071 107.283L138.59 107.017C139.117 106.062 139.63 105.08 140.113 104.1L140.605 104.344C140.118 105.331 139.602 106.32 139.071 107.283ZM142.003 101.336L141.5 101.115C141.937 100.114 142.357 99.0887 142.748 98.068L143.261 98.2651C142.867 99.294 142.443 100.327 142.003 101.336ZM9.17133 100.149C8.75047 99.1368 8.34743 98.1013 7.97348 97.0708L8.48951 96.8828C8.86051 97.9054 9.26046 98.9329 9.67798 99.9373L9.17133 100.149ZM144.377 95.1383L143.856 94.9653C144.198 93.9309 144.521 92.8735 144.816 91.8224L145.345 91.9712C145.048 93.0304 144.722 94.0961 144.377 95.1383ZM6.91595 93.9327C6.58931 92.8843 6.28238 91.8133 6.00372 90.749L6.53476 90.6093C6.81127 91.6655 7.11593 92.7285 7.44002 93.7689L6.91595 93.9327ZM146.166 88.7628L145.631 88.6381C145.877 87.5779 146.102 86.495 146.299 85.4203L146.839 85.5197C146.64 86.603 146.414 87.6939 146.166 88.7628V88.7628ZM5.23921 87.5266C5.01027 86.4521 4.80306 85.3574 4.62346 84.2724L5.16495 84.1822C5.34335 85.2591 5.54896 86.3454 5.77614 87.4116L5.23921 87.5266ZM147.362 82.2497L146.818 82.175C146.966 81.0976 147.091 79.9989 147.189 78.9093L147.736 78.9588C147.637 80.0569 147.511 81.1639 147.362 82.2497V82.2497ZM4.15729 80.9936C4.02781 79.9046 3.92152 78.7954 3.84124 77.697L4.3889 77.6567C4.46838 78.7471 4.574 79.8476 4.70254 80.9286L4.15729 80.9936ZM147.959 75.6547L147.411 75.63C147.46 74.5399 147.485 73.4342 147.485 72.3439H148.034C148.034 73.4426 148.009 74.5566 147.959 75.6547ZM3.6749 74.3889C3.65614 73.7144 3.64663 73.0262 3.64648 72.3439C3.64648 71.9205 3.6501 71.498 3.65734 71.0763L4.20634 71.0859C4.1991 71.5044 4.19549 71.9238 4.19549 72.3439C4.19562 73.0211 4.20514 73.7042 4.22363 74.3739L3.6749 74.3889ZM4.33662 67.8016L3.7887 67.7672C3.85719 66.668 3.95181 65.5578 4.06963 64.4673L4.61541 64.5265C4.4984 65.6088 4.4047 66.7106 4.33661 67.8016H4.33662ZM147.13 64.4453C147.021 63.3607 146.87 62.8319 146.71 61.752L147.254 61.6717C147.414 62.7598 147.551 63.5904 147.662 64.6831L147.13 64.4453ZM5.04284 61.2678L4.50027 61.1837C4.66848 60.0954 4.8639 58.9985 5.08117 57.923L5.61919 58.0321C5.40365 59.0993 5.20971 60.188 5.04284 61.2678ZM146.156 58.5128C145.947 57.4397 145.711 56.3594 145.454 55.3021L145.988 55.1721C146.246 56.2374 146.484 57.326 146.695 58.4072L146.156 58.5128ZM6.34323 54.8265L5.81071 54.6927C6.07731 53.6272 6.37258 52.5528 6.68836 51.4993L7.21403 51.6575C6.90081 52.703 6.60781 53.7692 6.34323 54.8265ZM144.605 52.1271C144.299 51.0796 143.964 50.0259 143.611 48.9949L144.13 48.816C144.486 49.8549 144.823 50.9169 145.132 51.9723L144.605 52.1271ZM8.2331 48.5236L7.7152 48.3412C8.08003 47.3012 8.47396 46.2563 8.88597 45.2353L9.39503 45.4417C8.9861 46.4546 8.59512 47.4917 8.2331 48.5236ZM142.473 45.9119C142.072 44.8994 141.643 43.8834 141.198 42.8917L141.699 42.6658C142.148 43.6651 142.58 44.689 142.983 45.7091L142.473 45.9119ZM10.6972 42.4177L10.1983 42.1881C10.6568 41.1874 11.1448 40.184 11.6488 39.2056L12.1367 39.4579C11.6365 40.4288 11.1522 41.4246 10.6972 42.4177ZM139.786 39.9323C139.295 38.9611 138.774 37.9879 138.239 37.04L138.716 36.769C139.256 37.7242 139.78 38.7048 140.276 39.6835L139.786 39.9323ZM13.7104 36.5683L13.2346 36.2938C13.7822 35.3408 14.3598 34.3869 14.9513 33.4588L15.4139 33.7549C14.827 34.676 14.2537 35.6226 13.7104 36.5683ZM136.561 34.2205C135.981 33.2951 135.373 32.3732 134.755 31.4803L135.206 31.1668C135.829 32.0665 136.441 32.9954 137.025 33.928L136.561 34.2205ZM17.244 31.0232L16.7953 30.7062C17.4282 29.8067 18.0899 28.9102 18.7625 28.0415L19.1962 28.3786C18.5289 29.2409 17.872 30.1306 17.244 31.0232ZM132.826 28.8248C132.165 27.9564 131.476 27.0932 130.778 26.2591L131.199 25.9058C131.902 26.7463 132.596 27.616 133.263 28.4909L132.826 28.8248ZM21.2664 25.8268L20.8485 25.4701C21.5587 24.6341 22.299 23.802 23.0486 22.997L23.4499 23.3722C22.706 24.1713 21.9714 24.9971 21.2664 25.8268ZM128.615 23.789C127.878 22.9846 127.113 22.1873 126.342 21.4196L126.729 21.0293C127.506 21.8031 128.276 22.6063 129.019 23.4167L128.615 23.789ZM25.742 21.0207L25.3581 20.6274C26.1432 19.8578 26.9555 19.0969 27.7725 18.366L28.1381 18.7765C27.3274 19.5018 26.5211 20.2569 25.742 21.0207ZM123.963 19.1558C123.155 18.4212 122.32 17.6967 121.483 17.0025L121.833 16.5786C122.677 17.2781 123.518 18.0081 124.332 18.7483L123.963 19.1558ZM30.6332 16.6439L30.2865 16.2173C31.1356 15.5244 32.0132 14.841 32.8948 14.1861L33.2219 14.628C32.3468 15.278 31.4758 15.9562 30.6332 16.6439ZM35.8987 12.7331L35.5923 12.2767C36.501 11.6639 37.4366 11.064 38.373 10.493L38.6583 10.9631C37.729 11.5296 36.8006 12.1252 35.8987 12.7331ZM41.4951 9.32181L41.2316 8.83909C42.193 8.31191 43.1788 7.80045 44.1615 7.31867L44.4028 7.81294C43.4276 8.29097 42.4493 8.79852 41.4951 9.32181ZM107.751 8.04718C106.774 7.55948 105.774 7.08833 104.777 6.64684L104.999 6.14371C106.003 6.58855 107.012 7.06334 107.996 7.55479L107.751 8.04718ZM47.3754 6.4396L47.1572 5.93484C48.1619 5.49846 49.1897 5.07994 50.2118 4.69084L50.4067 5.20525C49.3923 5.59128 48.3725 6.00657 47.3754 6.4396ZM101.741 5.38483C100.724 4.98983 99.6838 4.61294 98.6482 4.2648L98.823 3.74313C99.8663 4.09409 100.915 4.47379 101.939 4.87202L101.741 5.38483ZM53.4991 4.10941L53.3281 3.58667C54.3714 3.2439 55.4359 2.92115 56.4918 2.62767L56.6386 3.15767C55.5907 3.44899 54.5344 3.76919 53.4991 4.10941ZM95.5151 3.29144C94.468 2.99233 93.4001 2.71377 92.3409 2.46354L92.4669 1.92817C93.5344 2.18028 94.6104 2.46099 95.6658 2.76226L95.5151 3.29144ZM59.8187 2.35193L59.6964 1.81562C60.766 1.57077 61.8556 1.34768 62.9347 1.15265L63.0322 1.69393C61.9612 1.88761 60.8801 2.10896 59.8187 2.35193ZM89.1319 1.78338C88.0628 1.58232 86.974 1.40341 85.8953 1.25164L85.9714 0.706872C87.0584 0.859853 88.1559 1.0401 89.2332 1.24264L89.1319 1.78338ZM66.2728 1.18476L66.2001 0.639452C67.2869 0.494126 68.3921 0.3719 69.485 0.276541L69.5327 0.824534C68.4481 0.919354 67.3515 1.0405 66.2728 1.18476ZM82.6374 0.869125C81.5561 0.767049 80.4554 0.688343 79.3657 0.635557L79.3925 0.0859626C80.4902 0.139285 81.5992 0.218531 82.6889 0.321424L82.6374 0.869125ZM72.8064 0.613529L72.7833 0.0639348C73.7923 0.0217608 74.8206 0.00026957 75.8401 0L76.0886 0.000404511L76.0869 0.550548L75.8401 0.550144C74.8284 0.550397 73.8076 0.571753 72.8064 0.613523V0.613529Z" fill="#3F3D56"/>
<path d="M164.169 25.9135V204.215C164.166 206.339 163.323 208.375 161.824 209.877C160.325 211.378 158.292 212.222 156.172 212.222H83.9376C82.8875 212.224 81.8473 212.018 80.8767 211.617C79.9061 211.215 79.0241 210.625 78.2813 209.882C77.5385 209.138 76.9494 208.254 76.5479 207.282C76.1464 206.31 75.9403 205.267 75.9414 204.215V25.9135C75.9413 24.8612 76.1481 23.8192 76.5499 22.847C76.9517 21.8748 77.5407 20.9914 78.2832 20.2473C79.0258 19.5033 79.9073 18.913 80.8775 18.5104C81.8477 18.1077 82.8875 17.9005 83.9376 17.9006H94.7474V19.2897C94.7472 21.0395 95.4406 22.7177 96.675 23.9552C97.9094 25.1927 99.5838 25.8882 101.33 25.8887H138.069C139.475 25.8917 140.843 25.4403 141.972 24.6014C142.201 24.435 142.417 24.253 142.62 24.0567C143.263 23.4414 143.775 22.7016 144.124 21.8822C144.473 21.0627 144.653 20.1808 144.652 19.2897V17.9006H156.172C157.223 17.9003 158.262 18.1074 159.233 18.5099C160.203 18.9125 161.085 19.5027 161.827 20.2468C162.57 20.9909 163.159 21.8744 163.561 22.8467C163.962 23.819 164.169 24.8611 164.169 25.9135Z" fill="#3F3D56"/>
<path d="M153.608 82.1767H86.502V133.34H153.608V82.1767Z" fill="#1889B9"/>
<path d="M51.1647 73.556C57.1394 73.6845 61.8922 78.0232 61.8922 78.0232C61.8922 78.0232 56.9581 82.1538 50.9834 82.0253C45.0087 81.8969 40.2559 77.5582 40.2559 77.5582C40.2559 77.5582 45.19 73.4276 51.1647 73.556Z" fill="#1889B9"/>
<path d="M21.127 53.1188C26.5248 55.6885 32.7145 53.9459 32.7145 53.9459C32.7145 53.9459 30.1525 48.0369 24.7546 45.4671C19.3567 42.8974 13.167 44.64 13.167 44.64C13.167 44.64 15.729 50.549 21.127 53.1188Z" fill="#1889B9"/>
<path d="M21.6758 50.5651C27.6271 50.0201 32.8362 53.7964 32.8362 53.7964C32.8362 53.7964 28.3964 58.4562 22.4451 59.0012C16.4938 59.5463 11.2847 55.77 11.2847 55.77C11.2847 55.77 15.7245 51.1102 21.6758 50.5651Z" fill="#3F3D56"/>
<path d="M43.4913 51.5977C42.9208 57.5588 46.6659 62.7957 46.6659 62.7957C46.6659 62.7957 51.3359 58.3674 51.9063 52.4062C52.4767 46.4451 48.7316 41.2083 48.7316 41.2083C48.7316 41.2083 44.0617 45.6365 43.4913 51.5977Z" fill="#3F3D56"/>
<path d="M71.5189 88.1574C68.3975 93.2641 69.4714 99.6163 69.4714 99.6163C69.4714 99.6163 75.6063 97.6889 78.7278 92.5822C81.8492 87.4755 80.7753 81.1234 80.7753 81.1234C80.7753 81.1234 74.6404 83.0508 71.5189 88.1574Z" fill="#3F3D56"/>
<path d="M62.4631 143.68L62.918 143.372C61.3146 141.04 60.4391 138.284 60.4028 135.452C60.4155 131.31 62.4457 127.479 64.4092 123.774C64.7736 123.087 65.1368 122.401 65.4863 121.716C66.953 118.923 68.1219 115.982 68.9735 112.943C72.019 101.602 69.0206 88.2218 60.9528 77.1505C54.5527 68.3678 45.0121 60.6878 31.7861 53.6716L31.5293 54.1578C44.68 61.134 54.1595 68.7612 60.5095 77.475C68.4802 88.4129 71.446 101.619 68.4433 112.801C67.6016 115.802 66.4466 118.707 64.9976 121.466C64.6492 122.148 64.2873 122.831 63.9242 123.516C61.9295 127.28 59.8669 131.172 59.8538 135.451C59.8901 138.392 60.7983 141.257 62.4631 143.68Z" fill="#3F3D56"/>
<path d="M5.71551 54.3945C8.59595 54.3945 10.931 52.0546 10.931 49.1681C10.931 46.2817 8.59595 43.9418 5.71551 43.9418C2.83506 43.9418 0.5 46.2817 0.5 49.1681C0.5 52.0546 2.83506 54.3945 5.71551 54.3945Z" fill="#3F3D56"/>
<path d="M79.1339 134.004L46.3945 131.27V83.1526L79.1339 81.5123V134.004Z" fill="#1889B9"/>
<path d="M160.976 134.004L193.715 131.27V83.1526L160.976 81.5123V134.004Z" fill="#1889B9"/>
<path d="M131.435 101.38C130.461 100.537 129.261 100.001 127.984 99.8381C126.707 99.6755 125.411 99.8939 124.257 100.466C123.255 100.952 122.177 101.261 121.071 101.379C121.043 98.9778 121.483 96.5937 122.366 94.3607L122.511 93.9863H120.587L120.531 94.1887C120.317 94.9783 120.148 95.7796 120.026 96.5887C119.921 96.238 119.787 95.8972 119.623 95.5702C118.273 92.8886 115.155 91.7919 115.023 91.7466L114.757 91.6553L114.672 91.9238C114.63 92.0573 113.656 95.2221 115.006 97.9038C115.972 99.8237 117.845 100.931 118.879 101.422C117.57 101.337 116.29 100.994 115.113 100.412C114.38 100.034 113.555 99.8696 112.732 99.9392C111.91 100.009 111.124 100.309 110.464 100.806C106.871 103.542 104.811 107.552 104.811 111.808C104.811 117.4 108.424 122.521 114.017 124.854C114.521 125.064 115.062 125.172 115.609 125.171C116.367 125.171 117.111 124.966 117.764 124.579C118.631 124.073 119.615 123.806 120.618 123.804C121.621 123.802 122.607 124.065 123.476 124.567C124.037 124.899 124.669 125.096 125.319 125.142C125.97 125.188 126.623 125.082 127.225 124.832C132.785 122.489 136.378 117.377 136.378 111.808C136.378 107.822 134.623 104.119 131.435 101.38ZM121.007 94.5364H121.713C120.919 96.6692 120.514 98.9279 120.517 101.204H120.391C120.221 98.9629 120.429 96.7087 121.007 94.5364ZM115.496 97.6561C114.471 95.6203 114.921 93.1938 115.119 92.375C115.894 92.7009 118.106 93.7783 119.133 95.8179C120.157 97.8534 119.708 100.279 119.509 101.099C118.734 100.772 116.52 99.6914 115.496 97.6561ZM127.013 124.324C126.489 124.542 125.921 124.634 125.356 124.593C124.79 124.553 124.242 124.382 123.754 124.093C122.8 123.541 121.718 123.252 120.617 123.254C119.516 123.256 118.435 123.55 117.483 124.106C116.996 124.396 116.449 124.569 115.884 124.611C115.319 124.652 114.752 124.562 114.228 124.347C108.841 122.099 105.36 117.177 105.36 111.808C105.36 107.725 107.341 103.875 110.796 101.244C111.459 100.742 112.267 100.472 113.098 100.474C113.711 100.473 114.316 100.62 114.862 100.901C116.365 101.62 118.009 101.998 119.675 102.008C121.341 102.018 122.989 101.66 124.501 100.959C125.558 100.435 126.746 100.235 127.916 100.384C129.086 100.533 130.185 101.025 131.078 101.798C134.142 104.431 135.829 107.986 135.829 111.808C135.829 117.155 132.368 122.068 127.013 124.324Z" fill="white"/>
<path d="M62.6747 96.1817V95.5359H62.9308V93.524C62.9318 93.3749 62.8918 93.2283 62.8153 93.1004C62.7388 92.9725 62.6287 92.8681 62.497 92.7986C61.364 92.2063 60.1464 92.207 58.8781 92.8014C58.738 92.8681 58.6198 92.9732 58.5371 93.1045C58.4544 93.2359 58.4106 93.3881 58.4108 93.5434V95.5359H58.667V96.1206C57.7242 96.3853 56.8941 96.9527 56.304 97.7357C55.714 98.5186 55.3966 99.474 55.4004 100.455V104.808L55.8883 104.971L55.4004 105.297V106.606L55.8883 106.769L55.4004 107.095V108.403L55.8883 108.566L55.4004 108.892V118.856C55.4013 119.633 55.7098 120.378 56.2582 120.927C56.8066 121.477 57.5501 121.786 58.3257 121.787H62.6382C63.412 121.786 64.1539 121.478 64.7011 120.929C65.2483 120.381 65.5561 119.638 65.5569 118.862V108.892L65.0691 108.566L65.5569 108.403V107.095L65.0691 106.769L65.5569 106.606V105.297L65.0691 104.972L65.5569 104.808V100.23C65.5537 99.3395 65.2747 98.4717 64.7584 97.7466C64.2422 97.0214 63.5141 96.4747 62.6747 96.1817ZM59.1105 93.2998C60.2317 92.775 61.2565 92.7706 62.2428 93.2865C62.2853 93.3098 62.3206 93.3442 62.3451 93.386C62.3695 93.4279 62.3822 93.4756 62.3818 93.5241V94.6007H58.9598V93.5434C58.9594 93.4927 58.9733 93.4428 58.9999 93.3997C59.0266 93.3566 59.0649 93.3219 59.1105 93.2998ZM65.0079 104.412L63.8306 104.805L65.0079 105.592V106.209L63.8306 106.602L65.0079 107.389V108.006L63.8306 108.399L65.0079 109.186V118.862C65.0072 119.492 64.7573 120.095 64.3131 120.541C63.8688 120.986 63.2665 121.236 62.6382 121.237H58.3257C57.6957 121.236 57.0917 120.985 56.6462 120.539C56.2007 120.092 55.9501 119.487 55.9494 118.856V109.186L57.1268 108.399L55.9494 108.006V107.389L57.1268 106.602L55.9494 106.209V105.592L57.1268 104.805L55.9494 104.412V100.455C55.946 99.5607 56.2465 98.6918 56.8016 97.9914C57.3567 97.291 58.1332 96.8009 59.0034 96.6018L59.216 96.5525V95.5359H62.1257V96.5895L62.3236 96.6471C63.0964 96.8752 63.7751 97.3471 64.2587 97.9927C64.7423 98.6383 65.0051 99.423 65.0079 100.23V104.412Z" fill="white"/>
<path d="M191.707 103.715L190.325 103.438L190.65 102.786L190.016 102.659L190.126 101.999L189.434 101.883V101.256L188.872 101.095L189.405 100.428H188.48L188.674 99.9442L187.989 99.83L188.222 99.0148H187.481V98.254H187.207C186.342 98.254 185.86 99.2834 185.702 99.6956C180.927 100.53 167.065 110.152 165.483 111.258C164.826 111.044 163.851 111.545 163.647 111.656L163.325 111.832L163.79 112.298L163.651 112.715L164.504 113.035L164.318 113.503L164.855 113.952L164.372 114.315L165.098 114.751L164.971 115.39L165.782 115.506V116.145L166.253 116.239L166.018 117.064H166.541V117.716H167.052L167.283 118.411L167.52 118.363C168.073 118.252 168.546 117.487 168.73 117.147C173.328 116.325 187.524 106.317 188.906 105.337C190.519 105.531 191.111 105.099 191.175 105.048L191.437 104.837L190.811 104.314L191.707 103.715ZM188.87 104.778L188.763 104.763L188.675 104.826C188.518 104.938 172.95 115.99 168.512 116.625L168.37 116.646L168.306 116.775C168.135 117.122 167.906 117.437 167.627 117.705L167.447 117.166H167.09V116.514H166.746L166.945 115.817L166.331 115.694V115.029L165.623 114.928L165.713 114.479L165.354 114.264L165.739 113.974L164.975 113.336L165.222 112.717L164.34 112.386L164.418 112.15L164.248 111.979C164.66 111.807 165.159 111.679 165.373 111.808L165.526 111.9L165.672 111.797C165.828 111.688 181.29 100.85 185.943 100.215L186.116 100.191L186.168 100.023C186.248 99.7629 186.532 99.1059 186.932 98.8811V99.5649H187.494L187.293 100.271L187.91 100.375L187.669 100.978H188.263L187.928 101.397L188.885 101.671V102.349L189.494 102.451L189.387 103.094L189.838 103.184L189.513 103.837L190.3 103.994L189.894 104.265L190.477 104.752C189.948 104.86 189.403 104.868 188.87 104.778Z" fill="white"/>
<path d="M120.055 156.721C124.451 156.721 128.015 153.15 128.015 148.744C128.015 144.338 124.451 140.767 120.055 140.767C115.658 140.767 112.094 144.338 112.094 148.744C112.094 153.15 115.658 156.721 120.055 156.721Z" fill="#1889B9"/>
<path d="M125.067 147.956H120.841V143.721H119.268V147.956H115.042V149.532H119.268V153.767H120.841V149.532H125.067V147.956Z" fill="white"/>
<path d="M145.162 149.019L141.045 147.094V148.194H131.437V149.844H141.045V150.945L145.162 149.019Z" fill="white"/>
<path d="M94.9478 149.019L99.0653 147.094V148.194H108.673V149.844H99.0653V150.945L94.9478 149.019Z" fill="white"/>
<path d="M146.407 43.9417H93.7026V44.4918H146.407V43.9417Z" fill="white"/>
<path d="M146.534 194.131H93.8301V194.681H146.534V194.131Z" fill="white"/>
</g>
<defs>
<clipPath id="clip0_53_571">
<rect width="233" height="238" fill="white" transform="translate(0.5)"/>
</clipPath>
</defs>
</svg>
