<svg width="208" height="35" viewBox="0 0 208 35" fill="none" xmlns="http://www.w3.org/2000/svg">
<path d="M29.4778 13.984C29.4778 16.32 29.1258 18.384 28.4218 20.176C27.7498 21.968 26.7898 23.472 25.5417 24.688C26.5978 26.32 27.1258 27.904 27.1258 29.44C27.1258 30.752 26.6138 31.84 25.5898 32.704C24.5978 33.568 23.4618 34 22.1818 34C21.4458 34 20.7738 33.888 20.1658 33.664C19.5578 33.44 18.9018 33.056 18.1978 32.512C17.5898 32.032 17.0138 31.376 16.4698 30.544C15.9258 29.712 15.4938 28.848 15.1738 27.952C14.1178 27.824 13.0618 27.552 12.0058 27.136C12.1978 28.16 12.2938 28.944 12.2938 29.488C12.2938 32.528 10.7098 34.048 7.54175 34.048C4.88575 34.048 3.01375 32.496 1.92575 29.392C0.83775 26.288 0.29375 22.496 0.29375 18.016C0.29375 14.976 0.83775 12.128 1.92575 9.472C3.04575 6.784 4.74175 4.624 7.01375 2.992C9.28575 1.328 12.0538 0.495999 15.3178 0.495999C17.9418 0.495999 20.3258 1.056 22.4698 2.176C24.6138 3.264 26.3098 4.832 27.5578 6.88C28.8378 8.928 29.4778 11.296 29.4778 13.984ZM11.5258 16.24C11.5258 17.328 11.9578 18.288 12.8218 19.12C13.6858 19.92 14.6778 20.32 15.7978 20.32C16.9498 20.32 17.9418 19.92 18.7738 19.12C19.6378 18.288 20.0698 17.328 20.0698 16.24C20.0698 15.12 19.6378 14.16 18.7738 13.36C17.9418 12.528 16.9498 12.112 15.7978 12.112C14.6778 12.112 13.6858 12.528 12.8218 13.36C11.9578 14.192 11.5258 15.152 11.5258 16.24ZM39.0744 34C36.5784 34 34.5304 33.44 32.9304 32.32C31.3304 31.168 30.5304 29.52 30.5304 27.376C30.5304 25.52 31.3464 24.048 32.9784 22.96C34.6104 21.872 36.6424 21.328 39.0744 21.328C39.9704 21.328 40.8024 21.408 41.5704 21.568C42.3704 21.696 42.9144 21.856 43.2024 22.048C43.2024 21.248 42.8664 20.592 42.1944 20.08C41.5224 19.536 40.4984 19.264 39.1224 19.264C38.5144 19.264 38.0184 19.312 37.6344 19.408C37.2504 19.504 36.8344 19.648 36.3864 19.84C35.9384 20.032 35.5224 20.176 35.1384 20.272C34.7864 20.368 34.3064 20.416 33.6984 20.416C32.6744 20.416 31.8744 20.16 31.2984 19.648C30.7224 19.104 30.4344 18.288 30.4344 17.2C30.4344 15.952 30.8824 14.896 31.7784 14.032C32.7064 13.168 33.8584 12.528 35.2344 12.112C36.6104 11.664 37.9864 11.44 39.3624 11.44C42.0824 11.44 44.3544 11.952 46.1784 12.976C48.0344 13.968 49.3944 15.296 50.2584 16.96C51.1544 18.624 51.6024 20.464 51.6024 22.48C51.6024 23.568 51.5064 24.576 51.3144 25.504C51.1544 26.432 50.9304 27.152 50.6424 27.664C51.0904 28.048 51.4264 28.496 51.6504 29.008C51.9064 29.52 52.0344 30.048 52.0344 30.592C52.0344 31.52 51.7144 32.32 51.0744 32.992C50.4664 33.664 49.6504 34 48.6264 34C47.8584 34 47.2344 33.888 46.7544 33.664C46.2744 33.44 45.7624 33.088 45.2184 32.608C44.4184 33.088 43.5384 33.44 42.5784 33.664C41.6504 33.888 40.4824 34 39.0744 34ZM40.0344 29.152C40.7064 29.152 41.2344 29.008 41.6184 28.72C42.0344 28.432 42.2424 28.08 42.2424 27.664C42.2424 27.248 42.0344 26.896 41.6184 26.608C41.2344 26.32 40.7064 26.176 40.0344 26.176C39.3624 26.176 38.8184 26.32 38.4024 26.608C38.0184 26.896 37.8264 27.248 37.8264 27.664C37.8264 28.08 38.0184 28.432 38.4024 28.72C38.8184 29.008 39.3624 29.152 40.0344 29.152ZM62.7129 34.048C60.8569 34.048 59.2249 33.568 57.8169 32.608C56.4409 31.616 55.3689 30.224 54.6009 28.432C53.8649 26.64 53.4969 24.576 53.4969 22.24C53.4969 20.544 53.6889 18.864 54.0729 17.2C54.4569 15.536 55.0649 14.16 55.8969 13.072C56.7609 11.952 57.8329 11.392 59.1129 11.392C60.2969 11.392 61.2089 11.776 61.8489 12.544C62.4889 13.312 62.8089 14.352 62.8089 15.664C62.8089 16.368 62.6329 17.392 62.2809 18.736C62.2489 18.928 62.1529 19.408 61.9929 20.176C61.8329 20.912 61.7529 21.568 61.7529 22.144C61.7529 23.264 61.8649 24.064 62.0889 24.544C62.3129 24.992 62.7769 25.216 63.4809 25.216C64.2169 25.216 64.7129 24.816 64.9689 24.016C65.2249 23.184 65.3529 21.984 65.3529 20.416L65.3049 16.816C65.3049 15.696 65.5929 14.752 66.1689 13.984C66.7769 13.216 67.6889 12.832 68.9049 12.832C70.1209 12.832 71.0489 13.232 71.6889 14.032C72.3289 14.8 72.6489 15.728 72.6489 16.816L72.6009 19.072C72.5689 19.552 72.5529 20.24 72.5529 21.136C72.5529 22.48 72.6809 23.504 72.9369 24.208C73.2249 24.88 73.7529 25.216 74.5209 25.216C76.0249 25.216 76.7769 24.192 76.7769 22.144C76.7769 21.504 76.5209 20.384 76.0089 18.784C75.9769 18.624 75.8489 18.176 75.6249 17.44C75.4009 16.704 75.2889 16.08 75.2889 15.568C75.2889 14.192 75.5609 13.168 76.1049 12.496C76.6809 11.792 77.5609 11.44 78.7449 11.44C80.0249 11.44 81.0809 12 81.9129 13.12C82.7769 14.208 83.4009 15.584 83.7849 17.248C84.1689 18.88 84.3609 20.528 84.3609 22.192C84.3609 25.744 83.5289 28.592 81.8649 30.736C80.2009 32.848 77.9609 33.904 75.1449 33.904C73.8649 33.904 72.6809 33.664 71.5929 33.184C70.5049 32.704 69.6089 32.048 68.9049 31.216C68.1689 32.08 67.2569 32.768 66.1689 33.28C65.1129 33.792 63.9609 34.048 62.7129 34.048Z" fill="#1B1B1B"/>
<path d="M99.4021 34.048C97.2901 34.048 95.2581 33.76 93.3061 33.184C91.3861 32.576 89.8181 31.744 88.6021 30.688C87.3861 29.6 86.7781 28.368 86.7781 26.992C86.7781 25.68 87.1781 24.64 87.9781 23.872C88.7781 23.104 89.7861 22.72 91.0021 22.72C91.8021 22.72 92.4901 22.832 93.0661 23.056C93.6741 23.248 94.3301 23.536 95.0341 23.92C95.5461 24.176 95.9781 24.384 96.3301 24.544C96.7141 24.672 97.1141 24.736 97.5301 24.736C98.5861 24.736 99.1141 24.32 99.1141 23.488C99.1141 23.168 98.8901 22.896 98.4421 22.672C97.9941 22.416 97.2421 22.08 96.1861 21.664C94.2981 20.928 92.7621 20.208 91.5781 19.504C89.7541 18.416 88.4901 17.232 87.7861 15.952C87.1141 14.672 86.7781 13.072 86.7781 11.152C86.7781 9.296 87.3701 7.552 88.5541 5.92C89.7381 4.256 91.3541 2.928 93.4021 1.936C95.4501 0.943997 97.6901 0.447997 100.122 0.447997C102.49 0.447997 104.65 0.815997 106.602 1.552C108.586 2.256 110.138 3.248 111.258 4.528C112.41 5.776 112.986 7.168 112.986 8.704C112.986 10.464 112.458 11.792 111.402 12.688C110.378 13.552 109.226 13.984 107.946 13.984C106.89 13.984 106.09 13.92 105.546 13.792C105.034 13.664 104.522 13.488 104.01 13.264C103.594 13.104 103.242 12.992 102.954 12.928C102.666 12.832 102.266 12.784 101.754 12.784C101.338 12.784 100.938 12.928 100.554 13.216C100.202 13.472 100.026 13.84 100.026 14.32C100.026 14.672 100.234 14.976 100.65 15.232C101.066 15.456 101.546 15.664 102.09 15.856C102.634 16.048 103.018 16.192 103.242 16.288C106.218 17.376 108.41 18.624 109.818 20.032C111.226 21.408 111.93 23.2 111.93 25.408C111.93 28.128 110.826 30.256 108.618 31.792C106.442 33.296 103.37 34.048 99.4021 34.048ZM120.194 34C118.626 34 117.426 33.392 116.594 32.176C115.762 30.96 115.186 29.088 114.866 26.56C114.578 24.032 114.434 20.528 114.434 16.048C114.434 12.304 114.53 9.376 114.722 7.264C114.946 5.152 115.442 3.488 116.21 2.272C116.978 1.024 118.178 0.399998 119.81 0.399998C121.218 0.399998 122.274 0.847998 122.978 1.744C123.682 2.64 124.13 3.76 124.322 5.104C124.514 6.448 124.61 8.128 124.61 10.144V12.304C125.25 11.984 125.81 11.76 126.29 11.632C126.802 11.504 127.554 11.44 128.546 11.44C130.722 11.44 132.594 12 134.162 13.12C135.73 14.208 136.914 15.68 137.714 17.536C138.546 19.392 138.962 21.456 138.962 23.728C138.962 26.672 138.642 29.104 138.002 31.024C137.394 32.912 136.178 33.856 134.354 33.856C133.074 33.856 132.114 33.568 131.474 32.992C130.866 32.416 130.466 31.632 130.274 30.64C130.114 29.648 130.034 28.288 130.034 26.56C130.034 24.672 129.826 23.216 129.41 22.192C129.026 21.168 128.338 20.656 127.346 20.656C126.354 20.656 125.634 21.184 125.186 22.24C124.77 23.264 124.546 24.704 124.514 26.56C124.482 28.288 124.37 29.664 124.178 30.688C124.018 31.712 123.618 32.528 122.978 33.136C122.37 33.712 121.442 34 120.194 34ZM149.043 34C146.547 34 144.499 33.44 142.899 32.32C141.299 31.168 140.499 29.52 140.499 27.376C140.499 25.52 141.315 24.048 142.947 22.96C144.579 21.872 146.611 21.328 149.043 21.328C149.939 21.328 150.771 21.408 151.539 21.568C152.339 21.696 152.883 21.856 153.171 22.048C153.171 21.248 152.835 20.592 152.163 20.08C151.491 19.536 150.467 19.264 149.091 19.264C148.483 19.264 147.987 19.312 147.603 19.408C147.219 19.504 146.803 19.648 146.355 19.84C145.907 20.032 145.491 20.176 145.107 20.272C144.755 20.368 144.275 20.416 143.667 20.416C142.643 20.416 141.843 20.16 141.267 19.648C140.691 19.104 140.403 18.288 140.403 17.2C140.403 15.952 140.851 14.896 141.747 14.032C142.675 13.168 143.827 12.528 145.203 12.112C146.579 11.664 147.955 11.44 149.331 11.44C152.051 11.44 154.323 11.952 156.147 12.976C158.003 13.968 159.363 15.296 160.227 16.96C161.123 18.624 161.571 20.464 161.571 22.48C161.571 23.568 161.475 24.576 161.283 25.504C161.123 26.432 160.899 27.152 160.611 27.664C161.059 28.048 161.395 28.496 161.619 29.008C161.875 29.52 162.003 30.048 162.003 30.592C162.003 31.52 161.683 32.32 161.043 32.992C160.435 33.664 159.619 34 158.595 34C157.827 34 157.203 33.888 156.723 33.664C156.243 33.44 155.731 33.088 155.187 32.608C154.387 33.088 153.507 33.44 152.547 33.664C151.619 33.888 150.451 34 149.043 34ZM150.003 29.152C150.675 29.152 151.203 29.008 151.587 28.72C152.003 28.432 152.211 28.08 152.211 27.664C152.211 27.248 152.003 26.896 151.587 26.608C151.203 26.32 150.675 26.176 150.003 26.176C149.331 26.176 148.787 26.32 148.371 26.608C147.987 26.896 147.795 27.248 147.795 27.664C147.795 28.08 147.987 28.432 148.371 28.72C148.787 29.008 149.331 29.152 150.003 29.152ZM169.07 34C167.022 34 165.646 32.8 164.942 30.4C164.27 28 163.934 24.688 163.934 20.464C163.934 18.544 164.014 16.944 164.174 15.664C164.366 14.352 164.798 13.248 165.47 12.352C166.174 11.424 167.246 10.96 168.686 10.96C169.582 10.96 170.366 11.168 171.038 11.584C171.742 12 172.19 12.592 172.382 13.36C173.086 12.72 173.998 12.24 175.118 11.92C176.238 11.6 177.438 11.44 178.718 11.44C179.742 11.44 180.782 11.696 181.838 12.208C182.926 12.72 183.822 13.424 184.526 14.32C185.262 15.184 185.63 16.128 185.63 17.152C185.63 18.176 185.262 19.088 184.526 19.888C183.822 20.656 182.878 21.04 181.694 21.04C181.31 21.04 180.942 20.992 180.59 20.896C180.27 20.8 179.982 20.704 179.726 20.608C179.086 20.352 178.574 20.224 178.19 20.224C176.942 20.224 175.838 20.72 174.878 21.712C173.95 22.672 173.486 23.92 173.486 25.456C173.486 27.152 173.422 28.56 173.294 29.68C173.166 30.8 172.782 31.808 172.142 32.704C171.502 33.568 170.478 34 169.07 34ZM197.686 34C195.318 34 193.222 33.536 191.398 32.608C189.574 31.68 188.15 30.384 187.126 28.72C186.134 27.024 185.638 25.12 185.638 23.008C185.638 20.928 186.134 19.008 187.126 17.248C188.15 15.488 189.558 14.08 191.35 13.024C193.142 11.968 195.174 11.44 197.446 11.44C199.494 11.44 201.302 11.856 202.87 12.688C204.438 13.52 205.638 14.624 206.47 16C207.302 17.344 207.718 18.752 207.718 20.224C207.718 22.624 206.806 24.384 204.982 25.504C203.19 26.592 201.046 27.136 198.549 27.136C196.886 27.136 195.478 26.928 194.326 26.512C195.286 28.08 196.87 28.864 199.078 28.864C199.974 28.864 200.934 28.752 201.958 28.528C202.342 28.432 202.71 28.384 203.062 28.384C203.766 28.384 204.326 28.56 204.742 28.912C205.19 29.264 205.414 29.744 205.414 30.352C205.414 31.344 204.806 32.208 203.59 32.944C202.374 33.648 200.406 34 197.686 34ZM194.47 20.656C194.758 21.104 195.142 21.44 195.622 21.664C196.134 21.856 196.694 21.952 197.302 21.952C198.006 21.952 198.614 21.792 199.126 21.472C199.67 21.152 199.942 20.736 199.942 20.224C199.942 19.648 199.702 19.152 199.222 18.736C198.774 18.32 198.118 18.112 197.254 18.112C196.39 18.112 195.702 18.384 195.19 18.928C194.71 19.44 194.47 20.016 194.47 20.656Z" fill="#80B918"/>
</svg>
