<svg width="200" height="176" viewBox="0 0 200 176" fill="none" xmlns="http://www.w3.org/2000/svg">
<g clip-path="url(#clip0_496_1267)">
<path d="M9.65049 59.677L0.00699143 54.2428C-0.123089 48.4287 1.16736 42.6708 3.76628 37.4689C5.98963 47.5651 17.6904 52.3685 23.089 61.1837C24.7517 63.946 25.7718 67.0473 26.0737 70.2576C26.3756 73.468 25.9515 76.7051 24.8329 79.7292L25.4672 87.5571C20.4831 86.0636 15.8819 83.5067 11.9805 80.0628C8.07921 76.6188 4.97053 72.3695 2.86867 67.6078C1.71599 64.9248 0.905605 62.1073 0.456639 59.2217C4.95285 59.7003 9.65049 59.677 9.65049 59.677Z" fill="#F2F2F2"/>
<path d="M183.008 158.54L183.304 151.888C186.387 150.24 189.825 149.369 193.32 149.352C188.51 153.287 189.111 160.872 185.849 166.163C184.82 167.806 183.433 169.196 181.794 170.229C180.154 171.263 178.303 171.915 176.377 172.135L172.352 174.601C171.799 171.52 171.921 168.356 172.709 165.327C173.496 162.297 174.931 159.475 176.914 157.054C178.04 155.706 179.331 154.506 180.756 153.482C181.72 156.025 183.008 158.54 183.008 158.54Z" fill="#F2F2F2"/>
<path d="M172.636 171.178L168.99 171.177L167.256 157.111L172.636 157.111L172.636 171.178Z" fill="#FFB6B6"/>
<path d="M173.565 174.713L161.812 174.713V174.564C161.812 173.35 162.294 172.186 163.152 171.327C164.01 170.469 165.173 169.987 166.387 169.987H166.387L168.534 168.357L172.54 169.987L173.566 169.987L173.565 174.713Z" fill="#2F2E41"/>
<path d="M155.701 171.178L152.055 171.177L150.321 157.111L155.701 157.111L155.701 171.178Z" fill="#FFB6B6"/>
<path d="M156.63 174.713L144.876 174.713V174.564C144.877 173.35 145.359 172.186 146.217 171.327C147.074 170.469 148.238 169.987 149.451 169.987H149.452L151.599 168.357L155.604 169.987L156.63 169.987L156.63 174.713Z" fill="#2F2E41"/>
<path d="M154.123 94.2727L177.833 94.8657C182.336 97.3128 182.404 102.609 180.929 108.897C180.929 108.897 181.427 112.635 180.431 113.631C179.435 114.628 178.937 114.628 179.435 116.372C179.933 118.116 177.301 120.965 177.621 121.285C177.94 121.605 178.688 123.349 178.688 123.349L176.197 137.551C176.197 137.551 174.454 162.219 173.956 162.717C173.458 163.215 172.96 162.717 173.458 163.963C173.956 165.208 174.454 164.71 173.956 165.208C173.515 165.684 173.099 166.183 172.711 166.703H166.689C166.689 166.703 166.235 164.212 166.235 163.963C166.235 163.714 165.737 162.219 165.737 161.969C165.737 161.72 166.178 161.28 166.178 161.28C166.33 160.773 166.432 160.253 166.484 159.727C166.484 159.229 167.979 140.043 167.979 140.043L164.99 115.126L157.768 139.544C157.768 139.544 157.768 160.973 157.27 161.471C156.772 161.969 156.772 161.72 157.021 162.717C157.27 163.714 158.266 163.464 157.519 164.212C156.772 164.959 156.523 163.714 156.772 164.959L157.021 166.205L149.549 166.312C149.549 166.312 148.553 164.212 149.051 163.464C149.549 162.717 149.52 162.921 148.912 161.698C148.304 160.474 148.055 160.225 148.304 159.976C148.553 159.727 148.553 158.402 148.553 158.402L149.798 134.561C149.798 134.561 150.047 109.395 150.047 108.648C150.066 108.263 149.995 107.88 149.841 107.527V106.512L150.795 102.917L154.123 94.2727Z" fill="#2F2E41"/>
<path d="M168.366 44.9473C172.434 44.9473 175.733 41.6475 175.733 37.5769C175.733 33.5063 172.434 30.2065 168.366 30.2065C164.297 30.2065 160.999 33.5063 160.999 37.5769C160.999 41.6475 164.297 44.9473 168.366 44.9473Z" fill="#FFB6B6"/>
<path d="M164.682 49.8187C163.095 50.7627 162.146 52.4972 161.601 54.2621C160.592 57.5297 159.985 60.9082 159.792 64.3227L159.217 74.5454L152.087 96.3122C158.266 101.543 181.491 97.501 181.491 97.501C181.491 97.501 182.204 97.2632 181.491 96.5499C180.778 95.8367 180.084 96.4686 180.797 95.7553C181.51 95.042 181.018 95.8367 180.78 95.1234C180.543 94.4101 180.78 94.8857 181.018 94.6479C181.256 94.4101 179.178 92.2703 179.178 92.2703L181.08 79.7759L183.456 54.5738C180.604 51.0075 174.869 48.9051 174.869 48.9051L173.387 46.2365L165.978 46.8295L164.682 49.8187Z" fill="#E6E6E6"/>
<path d="M163.672 33.2514C163.957 33.2536 164.241 33.2909 164.517 33.3623C165.061 33.4931 165.613 33.5858 166.17 33.6397C167.876 33.8002 169.478 34.5279 170.722 35.7065C171.965 36.8851 172.778 38.4466 173.031 40.1417C173.459 39.7683 174.433 39.0814 175.231 39.7198C175.243 39.7299 175.251 39.7351 175.279 39.7218C175.809 39.4702 176.75 36.3727 176.779 33.6453C176.794 32.1978 176.566 30.3493 175.396 29.7639L175.334 29.7331L175.318 29.6661C175.24 29.3404 174.366 28.7846 172.848 28.352C170.089 27.5658 165.977 26.0343 163.661 28.2882C163.486 29.048 162.916 30.6741 162.34 30.8584C161.702 31.0624 161.151 31.2384 161.064 32.0211C160.992 33.135 160.997 34.2526 161.08 35.3657C161.296 34.6845 161.72 34.0884 162.293 33.6611C162.7 33.3869 163.181 33.2439 163.672 33.2514Z" fill="#2F2E41"/>
<path d="M149.96 73.9763L161.994 66.2658L155.933 58.2048L149.948 65.5703L131.3 66.7146C130.81 66.2295 130.189 65.8977 129.513 65.7596C128.838 65.6215 128.136 65.6831 127.495 65.9368C126.854 66.1906 126.3 66.6256 125.901 67.1887C125.503 67.7518 125.277 68.4188 125.251 69.1083C125.224 69.7978 125.399 70.48 125.754 71.0718C126.109 71.6636 126.628 72.1393 127.248 72.441C127.868 72.7427 128.563 72.8573 129.247 72.7709C129.931 72.6845 130.576 72.4007 131.101 71.9543L149.96 73.9763Z" fill="#FFB6B6"/>
<path d="M173.163 55.5033C173.862 59.7322 160.672 67.8076 160.672 67.8076C160.672 66.815 152.8 74.3083 152.445 73.4851C151.435 71.1455 150.725 65.6039 149.314 64.717C148.507 64.2097 154.174 59.4446 154.174 59.4446C154.174 59.4446 157.14 56.4546 161.034 52.6831C162.114 51.5964 163.452 50.8009 164.923 50.3708C166.394 49.9407 167.95 49.8899 169.445 50.2231C169.445 50.2231 172.465 51.2745 173.163 55.5033Z" fill="#E6E6E6"/>
<path d="M197.967 76.0002L190.007 64.1265L182.08 70.3598L189.567 76.1903L191.105 94.8186C190.631 95.3194 190.312 95.9475 190.189 96.6263C190.065 97.3051 190.141 98.0053 190.409 98.6414C190.676 99.2775 191.122 99.8221 191.693 100.209C192.264 100.596 192.936 100.808 193.625 100.819C194.315 100.831 194.993 100.641 195.577 100.274C196.161 99.9068 196.625 99.3775 196.913 98.7507C197.202 98.1239 197.302 97.4267 197.201 96.7441C197.1 96.0616 196.803 95.4231 196.345 94.9066L197.967 76.0002Z" fill="#FFB6B6"/>
<path d="M179.015 53.1825C183.227 52.3943 191.575 65.4161 191.575 65.4161C190.584 65.4374 198.238 73.1528 197.423 73.5257C195.107 74.5854 189.584 75.4129 188.728 76.8432C188.238 77.6612 183.356 72.0932 183.356 72.0932C183.356 72.0932 180.305 69.1892 176.454 65.375C175.345 64.3169 174.522 62.9953 174.061 61.5333C173.6 60.0712 173.516 58.5163 173.818 57.0131C173.818 57.0131 174.804 53.9706 179.015 53.1825Z" fill="#E6E6E6"/>
<path d="M200 174.772C200 174.818 199.991 174.864 199.973 174.907C199.956 174.95 199.93 174.989 199.897 175.021C199.864 175.054 199.825 175.08 199.782 175.098C199.74 175.116 199.694 175.125 199.647 175.124H116.576C116.483 175.124 116.393 175.087 116.327 175.021C116.261 174.955 116.223 174.865 116.223 174.772C116.223 174.678 116.261 174.588 116.327 174.522C116.393 174.456 116.483 174.419 116.576 174.419H199.647C199.694 174.419 199.74 174.428 199.782 174.445C199.825 174.463 199.864 174.489 199.897 174.522C199.93 174.554 199.956 174.593 199.973 174.636C199.991 174.679 200 174.725 200 174.772Z" fill="#CCCCCC"/>
<path d="M123.044 67.8414H22.2258C20.6506 67.8432 19.1405 68.47 18.0267 69.5843C16.913 70.6987 16.2864 72.2095 16.2847 73.7854V136.585C16.2865 138.161 16.913 139.672 18.0267 140.786C19.1405 141.9 20.6506 142.527 22.2258 142.529H123.044C124.619 142.527 126.129 141.9 127.243 140.786C128.357 139.672 128.983 138.161 128.985 136.585V73.7854C128.983 72.2095 128.357 70.6987 127.243 69.5843C126.129 68.47 124.619 67.8432 123.044 67.8414Z" fill="#1889B9"/>
<path d="M123.044 67.8414H22.2258C20.6506 67.8432 19.1405 68.47 18.0267 69.5843C16.913 70.6987 16.2864 72.2095 16.2847 73.7854V136.585C16.2865 138.161 16.913 139.672 18.0267 140.786C19.1405 141.9 20.6506 142.527 22.2258 142.529H123.044C124.619 142.527 126.129 141.9 127.243 140.786C128.357 139.672 128.983 138.161 128.985 136.585V73.7854C128.983 72.2095 128.357 70.6987 127.243 69.5843C126.129 68.47 124.619 67.8432 123.044 67.8414ZM124.994 112.951C124.97 119.344 122.442 125.474 117.953 130.024C113.464 134.574 107.371 137.183 100.982 137.291C90.752 137.424 106.642 137.476 94.3039 137.476C66.0911 137.476 36.6729 137.206 25.6967 137.031C24.2525 137.001 22.8773 136.408 21.8645 135.377C20.8517 134.347 20.2817 132.961 20.2761 131.516V73.7901C20.2766 73.2726 20.482 72.7763 20.8473 72.41C21.2126 72.0436 21.7081 71.8369 22.2254 71.835H123.04C123.557 71.8356 124.053 72.0411 124.419 72.4065C124.785 72.7719 124.992 73.2674 124.994 73.7848V112.951Z" fill="#3F3D56"/>
<path d="M110.634 31.6796H33.8206C33.141 31.6805 32.4783 31.8913 31.9228 32.2832C31.3674 32.6751 30.9464 33.2289 30.7173 33.869L18.8541 67.1682C18.677 67.6652 18.6218 68.1975 18.6931 68.7203C18.7643 69.2431 18.96 69.7411 19.2637 70.1726C19.5673 70.604 19.97 70.9562 20.4379 71.1996C20.9059 71.4429 21.4254 71.5703 21.9528 71.5711L124.972 71.754H124.976C125.521 71.754 126.058 71.6186 126.538 71.36C127.018 71.1014 127.426 70.7277 127.727 70.2723C128.027 69.8169 128.209 69.2942 128.258 68.7509C128.306 68.2076 128.219 67.6607 128.004 67.1594L127.825 67.2363L128.004 67.1594L113.662 33.6773C113.408 33.0841 112.986 32.5785 112.448 32.2233C111.909 31.8681 111.278 31.6791 110.634 31.6796Z" fill="#3F3D56"/>
<path d="M128.271 67.8825C128.271 68.329 128.18 68.7708 128.004 69.1813L113.663 94.9548C113.407 95.5467 112.984 96.051 112.446 96.4056C111.908 96.7601 111.278 96.9495 110.634 96.9503H33.8218C33.1419 96.9497 32.4788 96.7392 31.9229 96.3475C31.3671 95.9559 30.9455 95.4022 30.7158 94.762L18.8548 69.1724C18.7094 68.7647 18.6458 68.3323 18.6675 67.9C18.6892 67.4677 18.7959 67.0439 18.9814 66.6529C19.1669 66.2618 19.4276 65.9112 19.7487 65.621C20.0697 65.3309 20.4447 65.1068 20.8524 64.9618C21.205 64.8344 21.577 64.7692 21.9519 64.769L34.5361 64.7453L39.6723 64.7364L107.258 64.6178L112.397 64.6089L124.972 64.5852H124.975C125.849 64.5854 126.687 64.9328 127.306 65.5511C127.924 66.1695 128.271 67.008 128.271 67.8825Z" fill="#3F3D56"/>
<path d="M29.7838 114.948C31.307 114.948 52.2237 116.227 52.2237 117.751C52.2237 119.275 31.307 120.467 29.7838 120.467C29.0524 120.467 28.3509 120.176 27.8337 119.659C27.3164 119.141 27.0259 118.439 27.0259 117.708C27.0259 116.976 27.3164 116.274 27.8337 115.756C28.3509 115.239 29.0524 114.948 29.7838 114.948Z" fill="#3F3D56"/>
<path d="M105.85 11.4221H41.0831C39.3473 11.4241 37.6833 12.1149 36.4559 13.3428C35.2286 14.5708 34.5381 16.2357 34.5361 17.9722V96.9504H110.634C111.259 96.9524 111.871 96.7743 112.397 96.4374V17.9722C112.395 16.2357 111.705 14.5708 110.477 13.3428C109.25 12.1149 107.586 11.4241 105.85 11.4221Z" fill="#E6E6E6"/>
<path d="M81.1292 16.7328H45.6352C44.0547 16.7343 42.5393 17.363 41.4214 18.4808C40.3035 19.5987 39.6744 21.1145 39.6721 22.6958V96.9504H107.258V42.874C107.25 35.9434 104.494 29.2989 99.5961 24.3982C94.6977 19.4975 88.0565 16.7408 81.1292 16.7328Z" fill="white"/>
<path d="M95.7436 90.3557H51.1864C50.8012 90.3557 50.4318 90.5088 50.1595 90.7813C49.8871 91.0538 49.7341 91.4233 49.7341 91.8087C49.7341 92.194 49.8871 92.5636 50.1595 92.8361C50.4318 93.1085 50.8012 93.2616 51.1864 93.2616H95.7436C96.1287 93.2616 96.4981 93.1085 96.7704 92.8361C97.0428 92.5636 97.1958 92.194 97.1958 91.8087C97.1958 91.4233 97.0428 91.0538 96.7704 90.7813C96.4981 90.5088 96.1287 90.3557 95.7436 90.3557Z" fill="#E4E4E4"/>
<path d="M95.7436 84.6092H51.1864C50.8008 84.6092 50.4311 84.7624 50.1585 85.0352C49.8858 85.3079 49.7327 85.6779 49.7327 86.0636C49.7327 86.4494 49.8858 86.8193 50.1585 87.0921C50.4311 87.3648 50.8008 87.5181 51.1864 87.5181H95.7436C96.1291 87.5181 96.4989 87.3648 96.7715 87.0921C97.0441 86.8193 97.1973 86.4494 97.1973 86.0636C97.1973 85.6779 97.0441 85.3079 96.7715 85.0352C96.4989 84.7624 96.1291 84.6092 95.7436 84.6092Z" fill="#E4E4E4"/>
<path d="M70.5012 78.8656H51.1864C50.8012 78.8656 50.4318 79.0187 50.1595 79.2912C49.8871 79.5636 49.7341 79.9332 49.7341 80.3185C49.7341 80.7039 49.8871 81.0735 50.1595 81.3459C50.4318 81.6184 50.8012 81.7715 51.1864 81.7715H70.5012C70.8863 81.7715 71.2557 81.6184 71.5281 81.3459C71.8004 81.0735 71.9534 80.7039 71.9534 80.3185C71.9534 79.9332 71.8004 79.5636 71.5281 79.2912C71.2557 79.0187 70.8863 78.8656 70.5012 78.8656Z" fill="#E4E4E4"/>
<path d="M95.7436 66.8328H51.1864C50.8008 66.8328 50.4311 66.9861 50.1585 67.2588C49.8858 67.5316 49.7327 67.9015 49.7327 68.2873C49.7327 68.673 49.8858 69.0429 50.1585 69.3157C50.4311 69.5884 50.8008 69.7417 51.1864 69.7417H95.7436C96.1291 69.7417 96.4989 69.5884 96.7715 69.3157C97.0441 69.0429 97.1973 68.673 97.1973 68.2873C97.1973 67.9015 97.0441 67.5316 96.7715 67.2588C96.4989 66.9861 96.1291 66.8328 95.7436 66.8328Z" fill="#E4E4E4"/>
<path d="M95.7436 61.0892H51.1864C50.8012 61.0892 50.4318 61.2423 50.1595 61.5148C49.8871 61.7873 49.7341 62.1568 49.7341 62.5422C49.7341 62.9275 49.8871 63.2971 50.1595 63.5696C50.4318 63.842 50.8012 63.9951 51.1864 63.9951H95.7436C96.1287 63.9951 96.4981 63.842 96.7704 63.5696C97.0428 63.2971 97.1958 62.9275 97.1958 62.5422C97.1958 62.1568 97.0428 61.7873 96.7704 61.5148C96.4981 61.2423 96.1287 61.0892 95.7436 61.0892Z" fill="#E4E4E4"/>
<path d="M70.5012 55.3427H51.1864C50.8008 55.3427 50.4311 55.4959 50.1585 55.7686C49.8858 56.0414 49.7327 56.4113 49.7327 56.7971C49.7327 57.1828 49.8858 57.5528 50.1585 57.8255C50.4311 58.0983 50.8008 58.2515 51.1864 58.2515H70.5012C70.8868 58.2515 71.2565 58.0983 71.5292 57.8255C71.8018 57.5528 71.955 57.1828 71.955 56.7971C71.955 56.4113 71.8018 56.0414 71.5292 55.7686C71.2565 55.4959 70.8868 55.3427 70.5012 55.3427Z" fill="#E4E4E4"/>
<path d="M95.7436 43.3099H51.1864C50.8008 43.3099 50.4311 43.4631 50.1585 43.7359C49.8858 44.0086 49.7327 44.3786 49.7327 44.7643C49.7327 45.15 49.8858 45.52 50.1585 45.7927C50.4311 46.0655 50.8008 46.2187 51.1864 46.2187H95.7436C96.1291 46.2187 96.4989 46.0655 96.7715 45.7927C97.0441 45.52 97.1973 45.15 97.1973 44.7643C97.1973 44.3786 97.0441 44.0086 96.7715 43.7359C96.4989 43.4631 96.1291 43.3099 95.7436 43.3099Z" fill="#1889B9"/>
<path d="M95.7436 37.5663H51.1864C50.8008 37.5663 50.4311 37.7195 50.1585 37.9923C49.8858 38.265 49.7327 38.635 49.7327 39.0207C49.7327 39.4065 49.8858 39.7764 50.1585 40.0492C50.4311 40.3219 50.8008 40.4752 51.1864 40.4752H95.7436C96.1291 40.4752 96.4989 40.3219 96.7715 40.0492C97.0441 39.7764 97.1973 39.4065 97.1973 39.0207C97.1973 38.635 97.0441 38.265 96.7715 37.9923C96.4989 37.7195 96.1291 37.5663 95.7436 37.5663Z" fill="#1889B9"/>
<path d="M70.5012 31.8197H51.1864C50.8008 31.8197 50.4311 31.9729 50.1585 32.2457C49.8858 32.5185 49.7327 32.8884 49.7327 33.2741C49.7327 33.6599 49.8858 34.0298 50.1585 34.3026C50.4311 34.5753 50.8008 34.7286 51.1864 34.7286H70.5012C70.8868 34.7286 71.2565 34.5753 71.5292 34.3026C71.8018 34.0298 71.955 33.6599 71.955 33.2741C71.955 32.8884 71.8018 32.5185 71.5292 32.2457C71.2565 31.9729 70.8868 31.8197 70.5012 31.8197Z" fill="#1889B9"/>
<path d="M109.969 22.6321C116.215 22.6321 121.279 17.5657 121.279 11.316C121.279 5.06637 116.215 0 109.969 0C103.722 0 98.6582 5.06637 98.6582 11.316C98.6582 17.5657 103.722 22.6321 109.969 22.6321Z" fill="#1889B9"/>
<path d="M108.426 17.2055C108.231 17.2055 108.038 17.16 107.863 17.0726C107.689 16.9852 107.537 16.8582 107.419 16.7019L104.334 12.5856C104.234 12.4534 104.161 12.3028 104.12 12.1425C104.079 11.9821 104.069 11.8152 104.092 11.6513C104.116 11.4873 104.171 11.3295 104.255 11.187C104.339 11.0444 104.451 10.9199 104.583 10.8206C104.716 10.7212 104.866 10.649 105.027 10.608C105.187 10.567 105.354 10.5581 105.518 10.5818C105.682 10.6054 105.839 10.6612 105.981 10.7458C106.124 10.8305 106.248 10.9424 106.347 11.0752L108.366 13.7679L113.55 5.98687C113.736 5.70909 114.023 5.51625 114.351 5.45078C114.678 5.38531 115.018 5.45256 115.295 5.63775C115.573 5.82293 115.766 6.11088 115.831 6.43825C115.897 6.76561 115.829 7.10558 115.644 7.38335L109.473 16.6449C109.361 16.8124 109.211 16.9507 109.035 17.0482C108.859 17.1456 108.662 17.1994 108.461 17.2051C108.449 17.2053 108.438 17.2055 108.426 17.2055Z" fill="white"/>
</g>
<defs>
<clipPath id="clip0_496_1267">
<rect width="200" height="175.124" fill="white"/>
</clipPath>
</defs>
</svg>
