<svg width="200" height="149" viewBox="0 0 200 149" fill="none" xmlns="http://www.w3.org/2000/svg">
<g clip-path="url(#clip0_496_1799)">
<path d="M143.922 87.9198L145.495 86.9488C145.645 86.8541 145.792 86.753 145.944 86.6582C142.569 86.0779 139.494 84.3626 137.228 81.7964C134.961 79.2301 133.638 75.9668 133.479 72.5465C133.364 70.1943 133.808 67.8481 134.777 65.7013C135.678 63.6927 137.01 61.9063 138.677 60.4681C140.344 59.0299 142.306 57.975 144.425 57.3776L144.347 63.5698L147.749 56.8299C147.763 56.8277 147.777 56.8277 147.791 56.8299C149.762 56.7379 151.732 57.035 153.588 57.7044C155.445 58.3737 157.151 59.4021 158.61 60.7309C160.069 62.0597 161.252 63.6628 162.091 65.4487C162.93 67.2347 163.409 69.1684 163.501 71.1396C163.514 71.426 163.501 71.7083 163.501 71.9821C164.685 70.632 165.759 69.185 166.471 67.599C167.912 64.387 167.945 60.7496 167.825 56.3287C167.598 47.5668 167.221 38.7397 166.728 29.9378C163.176 29.5433 159.882 27.8954 157.436 25.2899C154.991 22.6845 153.554 19.2923 153.385 15.7229C153.364 15.2617 153.37 14.8088 153.385 14.3581C153.385 14.2465 153.385 14.1327 153.402 14.0211C153.431 13.5851 153.471 13.1533 153.539 12.7279C153.539 12.6563 153.564 12.5889 153.577 12.5173C153.639 12.1564 153.712 11.7997 153.798 11.4473C153.832 11.3167 153.863 11.184 153.899 11.0534C154.004 10.6701 154.11 10.2931 154.255 9.92029C154.299 9.79602 154.352 9.67597 154.398 9.55381C154.506 9.28 154.621 9.0104 154.744 8.74291C154.809 8.6018 154.872 8.46279 154.942 8.32167C154.958 8.28586 154.973 8.25006 154.992 8.21425C156.578 5.08197 159.211 2.60441 162.434 1.21223C165.657 -0.179944 169.266 -0.39871 172.634 0.593961L172.533 8.65234L175.903 1.9967C178.667 3.57893 180.853 6.00352 182.141 8.91634C183.43 11.8291 183.753 15.0776 183.064 18.1872H183.081C183.057 18.2946 183.024 18.3978 182.999 18.5031C182.952 18.7011 182.902 18.897 182.847 19.0929C182.775 19.3435 182.695 19.5899 182.613 19.8364C182.55 20.0196 182.489 20.207 182.419 20.3882C182.318 20.6536 182.209 20.9126 182.087 21.1717C182.019 21.3233 181.958 21.4771 181.876 21.6266C181.684 22.0142 181.473 22.3933 181.244 22.764C181.166 22.8925 181.078 23.0146 180.996 23.1431C180.835 23.3916 180.673 23.6381 180.498 23.8782C180.391 24.0256 180.275 24.1667 180.161 24.3121C179.997 24.5227 179.829 24.7333 179.654 24.925C179.53 25.0661 179.403 25.2051 179.273 25.3462C179.089 25.54 178.9 25.7274 178.704 25.9128C178.575 26.0371 178.445 26.1613 178.31 26.2793C178.089 26.4751 177.857 26.6626 177.623 26.8458C177.506 26.9385 177.392 27.0354 177.27 27.1239C176.914 27.3878 176.547 27.6357 176.168 27.8674C176.096 27.9095 176.021 27.9453 175.957 27.9874C175.642 28.1749 175.326 28.3497 174.986 28.514C174.845 28.5835 174.698 28.6446 174.553 28.7098C174.281 28.832 174.007 28.95 173.727 29.0574C173.565 29.1185 173.398 29.1753 173.232 29.2322C172.956 29.327 172.676 29.4133 172.39 29.4913C172.221 29.5376 172.055 29.5839 171.884 29.6239C171.577 29.6977 171.263 29.7587 170.947 29.8114C170.926 29.8114 170.907 29.8114 170.886 29.824C171.093 33.5366 171.278 37.2513 171.44 40.968C172.335 39.1289 173.598 37.4923 175.149 36.1584C176.7 34.8246 178.507 33.8217 180.459 33.2113C182.412 32.6009 184.469 32.3959 186.503 32.6087C188.538 32.8216 190.507 33.4479 192.291 34.4493L189.635 41.7263L195.099 36.4797C198.023 39.1604 199.766 42.8915 199.943 46.8549C200.013 48.2456 199.884 49.639 199.562 50.9936C198.875 53.9249 197.324 56.5823 195.109 58.6211C192.894 60.6598 190.117 61.9857 187.139 62.4269C184.161 62.868 181.119 62.404 178.408 61.095C175.696 59.786 173.441 57.6925 171.935 55.086C171.935 55.463 171.962 55.8421 171.972 56.2191C172.071 60.1199 172.196 64.9726 170.252 69.3072C168.935 72.2453 166.814 74.6317 164.719 76.7695C163.356 78.1617 161.943 79.5076 160.494 80.8113C159.069 82.7245 157.209 84.271 155.068 85.3228C152.688 87.1567 150.224 88.8739 147.675 90.4746L146.127 91.473C144.697 92.3597 143.231 93.2696 141.793 94.2111C142.045 94.1858 142.296 94.1584 142.553 94.1479C145.737 93.9987 148.886 94.8656 151.546 96.6235C154.205 98.3813 156.236 100.939 157.347 103.927L147.957 111.571L158.278 109.176C158.275 111.717 157.628 114.215 156.398 116.438C155.167 118.662 153.393 120.536 151.242 121.888C149.09 123.24 146.631 124.024 144.094 124.167C141.558 124.311 139.026 123.809 136.735 122.708C136.967 122.999 137.201 123.287 137.433 123.576C137.894 124.151 138.353 124.722 138.802 125.288C144.91 133.024 146.612 140.371 143.585 145.971L139.907 143.983C142.856 138.532 138.433 131.556 135.52 127.879C135.08 127.323 134.629 126.763 134.174 126.194C130.272 121.35 125.848 115.848 125.96 109.106C126.118 98.9543 135.994 92.8315 143.922 87.9198Z" fill="#F2F2F2"/>
<path d="M95.9382 148.204C148.923 148.204 191.876 146.224 191.876 143.781C191.876 141.338 148.923 139.358 95.9382 139.358C42.953 139.358 0 141.338 0 143.781C0 146.224 42.953 148.204 95.9382 148.204Z" fill="#3F3D56"/>
<path d="M173.445 142.132C174.077 140.971 173.361 139.549 172.543 138.513C171.726 137.477 170.73 136.407 170.751 135.082C170.781 133.187 172.792 132.068 174.401 131.064C175.593 130.317 176.692 129.433 177.676 128.429C178.089 128.042 178.431 127.586 178.685 127.081C179.016 126.339 179.007 125.497 178.986 124.684C178.916 121.979 178.783 119.278 178.586 116.579" stroke="#3F3D56" stroke-width="4" stroke-miterlimit="10"/>
<path d="M181.642 116.436C181.619 115.941 181.471 115.46 181.214 115.037C180.956 114.614 180.597 114.262 180.168 114.014L179.506 115.324L179.525 113.74C179.073 113.604 178.595 113.579 178.131 113.667C177.667 113.755 177.231 113.953 176.859 114.244C176.488 114.536 176.192 114.912 175.996 115.342C175.8 115.772 175.71 116.242 175.734 116.714C175.771 117.496 176.117 118.231 176.696 118.758C176.983 119.019 177.318 119.221 177.683 119.352C178.048 119.484 178.435 119.542 178.822 119.524C179.209 119.505 179.589 119.411 179.94 119.246C180.291 119.081 180.605 118.848 180.866 118.562C181.127 118.275 181.329 117.94 181.46 117.575C181.592 117.21 181.65 116.823 181.632 116.436H181.642Z" fill="#57B793"/>
<path d="M176.37 136.445C176.061 137.046 175.554 137.523 174.935 137.795C174.316 138.067 173.622 138.118 172.97 137.939C172.318 137.761 171.747 137.363 171.353 136.814C170.958 136.264 170.765 135.596 170.805 134.921C170.845 134.246 171.116 133.605 171.572 133.106C172.029 132.607 172.643 132.279 173.311 132.179C173.98 132.079 174.663 132.211 175.246 132.555C175.828 132.898 176.275 133.431 176.512 134.065L174.667 135.567L176.697 135.095C176.697 135.564 176.585 136.027 176.37 136.445Z" fill="#57B793"/>
<path d="M174.911 130.697C174.523 130.716 174.135 130.658 173.77 130.526C173.405 130.395 173.069 130.192 172.782 129.93C172.495 129.669 172.263 129.353 172.098 129.001C171.934 128.65 171.84 128.269 171.823 127.881C171.8 127.419 171.887 126.957 172.078 126.535C172.255 126.14 172.516 125.789 172.844 125.505C173.171 125.222 173.557 125.015 173.974 124.897L173.959 126.116L174.629 124.789C175.412 124.753 176.178 125.029 176.758 125.557C177.338 126.085 177.684 126.822 177.72 127.605C177.757 128.389 177.481 129.154 176.953 129.734C176.425 130.314 175.688 130.66 174.904 130.697H174.911Z" fill="#57B793"/>
<path d="M182.087 125.914C181.305 125.951 180.54 125.675 179.961 125.149C179.382 124.622 179.036 123.886 178.999 123.104C178.962 122.322 179.237 121.557 179.764 120.978C180.291 120.399 181.027 120.053 181.809 120.016C182.361 119.989 182.911 120.119 183.392 120.391L182.87 121.824L183.944 120.792C184.521 121.318 184.865 122.052 184.901 122.832C184.914 123.106 184.888 123.379 184.825 123.645C184.677 124.27 184.33 124.829 183.836 125.239C183.342 125.648 182.728 125.885 182.087 125.914Z" fill="#57B793"/>
<path opacity="0.1" d="M181.244 117.215C180.562 117.291 179.898 117.504 179.214 117.546C178.529 117.588 177.777 117.424 177.344 116.891C177.11 116.604 176.994 116.242 176.796 115.93C176.609 115.639 176.354 115.398 176.052 115.229C175.874 115.602 175.776 116.008 175.765 116.421C175.753 116.834 175.829 117.245 175.987 117.627C176.145 118.009 176.381 118.354 176.68 118.638C176.98 118.923 177.336 119.142 177.725 119.28C178.115 119.418 178.529 119.473 178.941 119.441C179.353 119.409 179.754 119.291 180.117 119.094C180.481 118.897 180.798 118.626 181.05 118.298C181.302 117.971 181.482 117.594 181.579 117.192C181.465 117.196 181.354 117.205 181.244 117.215Z" fill="black"/>
<path opacity="0.1" d="M182.087 125.914C181.577 125.94 181.069 125.833 180.613 125.604C180.157 125.374 179.768 125.031 179.485 124.606C179.201 124.181 179.033 123.691 178.996 123.181C178.959 122.672 179.055 122.162 179.275 121.701C179.51 121.86 179.711 122.062 179.869 122.297C180.079 122.616 180.206 122.982 180.454 123.275C180.913 123.816 181.701 123.993 182.415 123.959C183.129 123.926 183.816 123.725 184.521 123.66C184.618 123.66 184.719 123.643 184.818 123.641C184.672 124.266 184.326 124.825 183.833 125.235C183.34 125.645 182.727 125.884 182.087 125.914Z" fill="black"/>
<path opacity="0.1" d="M174.911 130.697C174.523 130.716 174.135 130.658 173.77 130.526C173.405 130.394 173.069 130.192 172.782 129.93C172.495 129.669 172.263 129.353 172.098 129.001C171.934 128.65 171.84 128.269 171.823 127.881C171.8 127.419 171.887 126.957 172.078 126.535C172.323 126.695 172.537 126.899 172.71 127.135C172.939 127.46 173.083 127.833 173.342 128.132C173.841 128.688 174.679 128.884 175.435 128.865C176.191 128.846 176.872 128.669 177.6 128.614C177.421 129.196 177.066 129.708 176.585 130.08C176.103 130.453 175.519 130.668 174.911 130.697Z" fill="black"/>
<path opacity="0.1" d="M176.37 136.445C176.211 136.799 175.984 137.118 175.702 137.384C175.419 137.65 175.087 137.858 174.725 137.996C174.362 138.134 173.976 138.199 173.588 138.187C173.2 138.176 172.818 138.088 172.464 137.929C172.11 137.77 171.791 137.543 171.525 137.26C171.259 136.978 171.051 136.646 170.914 136.283C170.776 135.92 170.711 135.534 170.722 135.146C170.734 134.758 170.822 134.377 170.981 134.023C171.223 134.184 171.442 134.379 171.629 134.602C171.909 134.945 172.095 135.333 172.421 135.655C173.026 136.247 174.001 136.498 174.869 136.514C175.37 136.521 175.872 136.498 176.37 136.445Z" fill="black"/>
<path d="M168.988 140.794C168.988 140.794 171.32 140.723 172.023 140.221C172.727 139.72 175.604 139.122 175.787 139.926C175.97 140.731 179.294 143.928 176.659 143.941C174.024 143.954 170.538 143.52 169.837 143.098C169.135 142.677 168.988 140.794 168.988 140.794Z" fill="#656380"/>
<path opacity="0.2" d="M176.705 143.661C174.072 143.682 170.585 143.24 169.883 142.818C169.35 142.494 169.135 141.325 169.066 140.786H168.988C168.988 140.786 169.135 142.667 169.831 143.103C170.526 143.539 174.018 143.962 176.653 143.945C177.413 143.945 177.676 143.667 177.661 143.267C177.562 143.505 177.272 143.657 176.705 143.661Z" fill="black"/>
<path d="M40.947 135.634C39.4179 132.803 41.1577 129.336 43.1459 126.813C45.1342 124.29 47.569 121.666 47.5163 118.449C47.4405 113.828 42.5372 111.101 38.6197 108.651C35.7127 106.833 33.031 104.678 30.6308 102.229C29.6683 101.246 28.7352 100.197 28.1749 98.9416C27.3662 97.1345 27.3872 95.0809 27.4399 93.1011C27.6084 86.5016 27.9341 79.9148 28.4172 73.3406" stroke="#3F3D56" stroke-width="4" stroke-miterlimit="10"/>
<path d="M20.9674 72.9804C21.0251 71.7747 21.3847 70.6029 22.0133 69.5725C22.6419 68.542 23.5192 67.686 24.5648 67.083L26.1782 70.2739L26.1297 66.4111C27.5954 65.9792 29.1605 66.0243 30.5989 66.5399C32.0373 67.0555 33.2746 68.0148 34.1322 69.2795C34.9898 70.5442 35.4233 72.0486 35.37 73.5757C35.3168 75.1028 34.7796 76.5735 33.8361 77.7753C32.8925 78.9772 31.5914 79.8481 30.1206 80.2623C28.6498 80.6765 27.0854 80.6125 25.6533 80.0796C24.2212 79.5467 22.9956 78.5725 22.1533 77.2975C21.311 76.0226 20.8958 74.513 20.9674 72.9867V72.9804Z" fill="#57B793"/>
<path d="M33.8196 121.752C34.5442 123.164 35.7148 124.297 37.1496 124.976C38.5845 125.654 40.2032 125.839 41.7543 125.503C43.3054 125.167 44.702 124.328 45.7272 123.116C46.7524 121.905 47.3488 120.389 47.4236 118.803C47.474 117.807 47.3139 116.811 46.954 115.88C46.4277 114.515 45.4985 113.342 44.2898 112.518C43.0811 111.693 41.6502 111.256 40.1872 111.265C38.7241 111.273 37.2983 111.727 36.0993 112.565C34.9002 113.403 33.9846 114.587 33.4742 115.958L37.9752 119.618L33.0234 118.466C33.0214 119.61 33.2945 120.736 33.8196 121.752Z" fill="#57B793"/>
<path d="M37.3769 107.762C39.1439 107.843 40.8789 107.271 42.2516 106.156C43.6243 105.04 44.5389 103.459 44.8212 101.713C45.1035 99.9665 44.7337 98.1775 43.7824 96.6862C42.8311 95.195 41.3646 94.1056 39.6621 93.6256L39.7 96.5932L38.0782 93.3644H38.0593C36.1497 93.2753 34.2829 93.9484 32.8696 95.2357C31.4563 96.523 30.6123 98.319 30.5232 100.229C30.4341 102.138 31.1073 104.005 32.3945 105.418C33.6818 106.831 35.4778 107.676 37.3874 107.765L37.3769 107.762Z" fill="#57B793"/>
<path d="M19.8828 96.1213C20.9985 96.1757 22.1116 95.97 23.1342 95.5205C24.1567 95.0709 25.0608 94.3898 25.7751 93.531C26.4893 92.6722 26.9942 91.6591 27.2498 90.5717C27.5054 89.4843 27.5048 88.3524 27.2479 87.2653C26.9911 86.1782 26.4851 85.1657 25.7699 84.3076C25.0547 83.4496 24.1498 82.7695 23.1267 82.3211C22.1037 81.8728 20.9904 81.6683 19.8747 81.7239C18.7591 81.7795 17.6716 82.0937 16.6982 82.6416L17.9619 86.1316L15.3523 83.6104C14.6547 84.2453 14.0892 85.0114 13.688 85.8651C13.2868 86.7187 13.0579 87.6431 13.0144 88.5853C12.981 89.252 13.0427 89.9201 13.1977 90.5694C13.5559 92.0963 14.4026 93.4646 15.6091 94.4666C16.8156 95.4686 18.3161 96.0496 19.8828 96.1213Z" fill="#57B793"/>
<path opacity="0.1" d="M21.9363 74.9013C23.6002 75.0846 25.2178 75.6006 26.8859 75.7038C28.5541 75.807 30.3886 75.4089 31.4438 74.1115C32.0125 73.4122 32.2968 72.5276 32.777 71.7652C33.232 71.0547 33.8558 70.4679 34.5926 70.057C35.0514 70.9703 35.3107 71.9708 35.3533 72.992C35.3959 74.0132 35.2209 75.0318 34.8397 75.9802C34.4586 76.9285 33.8801 77.785 33.1426 78.4927C32.4052 79.2004 31.5257 79.7432 30.5624 80.085C29.5992 80.4268 28.5742 80.5598 27.5556 80.4752C26.5371 80.3906 25.5481 80.0904 24.6544 79.5944C23.7608 79.0984 22.9828 78.4179 22.3722 77.5983C21.7616 76.7786 21.3323 75.8385 21.1128 74.8402C21.3929 74.8529 21.6667 74.8718 21.9363 74.9013Z" fill="black"/>
<path opacity="0.1" d="M19.8828 96.1214C21.1247 96.1787 22.3603 95.9139 23.4697 95.3528C24.5791 94.7917 25.5246 93.9534 26.2145 92.9191C26.9043 91.8849 27.3151 90.6898 27.4069 89.45C27.4987 88.2102 27.2685 86.9677 26.7385 85.8431C26.1663 86.2278 25.6742 86.72 25.2894 87.2922C24.7755 88.0672 24.4659 88.9624 23.8614 89.6743C22.7388 90.9928 20.8221 91.4246 19.0824 91.3466C17.3427 91.2687 15.664 90.7716 13.9327 90.6137C13.6926 90.5926 13.4483 90.5757 13.2061 90.5694C13.5639 92.095 14.4093 93.4623 15.6141 94.4642C16.8189 95.4661 18.3175 96.0478 19.8828 96.1214Z" fill="black"/>
<path opacity="0.1" d="M37.3769 107.762C38.6067 107.82 39.8308 107.562 40.9324 107.012C42.0339 106.462 42.9763 105.64 43.6695 104.622C44.3627 103.605 44.7837 102.427 44.8922 101.2C45.0008 99.9739 44.7933 98.7402 44.2895 97.6168C43.6961 98.0111 43.1799 98.5108 42.7667 99.0912C42.2065 99.881 41.8568 100.791 41.2018 101.52C39.9865 102.874 37.9435 103.352 36.1005 103.308C34.3166 103.27 32.5979 102.832 30.8245 102.695C31.2635 104.111 32.1281 105.357 33.3005 106.263C34.473 107.17 35.8963 107.694 37.3769 107.762Z" fill="black"/>
<path opacity="0.1" d="M33.8196 121.752C34.5441 123.164 35.7148 124.297 37.1496 124.976C38.5845 125.654 40.2032 125.839 41.7543 125.503C43.3054 125.167 44.702 124.328 45.7272 123.116C46.7524 121.905 47.3488 120.389 47.4236 118.803C47.4739 117.807 47.3139 116.811 46.9539 115.88C46.361 116.269 45.8287 116.744 45.3743 117.289C44.6898 118.131 44.2369 119.071 43.445 119.85C41.9706 121.295 39.5927 121.893 37.476 121.956C36.2542 121.96 35.0333 121.892 33.8196 121.752Z" fill="black"/>
<path d="M90.8243 139.842L63.0222 145.529L62.3904 145.466L37.9583 143.002V112.04L67.8665 106.985L89.5606 109.513L89.5669 109.65L89.569 109.717L90.8243 139.842Z" fill="#1889B9"/>
<path opacity="0.1" d="M90.8243 139.842L63.0222 145.529L62.3904 145.466V113.725L89.5669 109.65L90.8243 139.842Z" fill="black"/>
<path opacity="0.05" d="M89.569 109.717L89.5606 109.723L62.3904 113.725L37.9583 112.04L67.8665 106.985L89.5606 109.513L89.5669 109.65L89.569 109.717Z" fill="black"/>
<path d="M121.364 141.106L93.5623 146.793L92.9304 146.73L68.4983 144.265V113.304L98.4066 108.249L120.101 110.776L120.107 110.913L120.109 110.981L121.364 141.106Z" fill="#3F3D56"/>
<path opacity="0.1" d="M121.364 141.106L93.5623 146.793L92.9304 146.73V114.989L120.107 110.913L121.364 141.106Z" fill="black"/>
<path opacity="0.05" d="M120.109 110.981L120.101 110.987L92.9304 114.989L68.4983 113.304L98.4066 108.249L120.101 110.776L120.107 110.913L120.109 110.981Z" fill="black"/>
<path d="M102.198 110.776L74.3958 116.463L73.7639 116.4L49.3318 113.936V82.9744L79.2401 77.9195L100.934 80.447L100.94 80.5839L100.943 80.6513L102.198 110.776Z" fill="#3F3D56"/>
<path opacity="0.1" d="M102.198 110.776L74.3958 116.463L73.7639 116.4V84.6594L100.94 80.5839L102.198 110.776Z" fill="black"/>
<path opacity="0.05" d="M100.943 80.6513L100.934 80.6576L73.7639 84.6594L49.3318 82.9744L79.2401 77.9195L100.934 80.447L100.94 80.5839L100.943 80.6513Z" fill="black"/>
<path d="M117.994 112.074L103.485 115.044L103.154 115.01L90.4031 113.723V97.5642L106.012 94.9251L117.335 96.2457L117.339 96.3173V96.351L117.994 112.074Z" fill="#3F3D56"/>
<path opacity="0.1" d="M117.994 112.074L103.485 115.044L103.154 115.01V98.4445L117.339 96.3173L117.994 112.074Z" fill="black"/>
<path opacity="0.05" d="M117.339 96.351L117.335 96.3552L103.154 98.4446L90.4031 97.5642L106.012 94.9251L117.335 96.2457L117.339 96.3173V96.351Z" fill="black"/>
<path d="M79.0294 80.6912L64.5197 83.6589L64.189 83.6273L51.438 82.3404V66.1815L67.0472 63.5424L78.3702 64.863L78.3744 64.9346V64.9683L79.0294 80.6912Z" fill="#3F3D56"/>
<path opacity="0.1" d="M79.0294 80.6912L64.5196 83.6589L64.189 83.6273V67.0619L78.3743 64.9346L79.0294 80.6912Z" fill="black"/>
<path opacity="0.05" d="M78.3744 64.9683L78.3702 64.9725L64.189 67.0619L51.438 66.1815L67.0472 63.5424L78.3702 64.863L78.3744 64.9346V64.9683Z" fill="black"/>
<path d="M104.515 80.0594L90.005 83.0271L89.6744 82.9955L76.9233 81.7086V65.5497L92.5325 62.9106L103.856 64.2312L103.86 64.3028V64.3365L104.515 80.0594Z" fill="#1889B9"/>
<path opacity="0.1" d="M104.515 80.0594L90.005 83.0271L89.6743 82.9955V66.4301L103.86 64.3028L104.515 80.0594Z" fill="black"/>
<path opacity="0.05" d="M103.86 64.3365L103.856 64.3407L89.6744 66.4301L76.9233 65.5497L92.5325 62.9106L103.856 64.2312L103.86 64.3028V64.3365Z" fill="black"/>
<path d="M112.097 63.8415L97.5873 66.8092L97.2567 66.7776L84.5056 65.4907V49.3318L100.115 46.6927L111.438 48.0133L111.442 48.0849V48.1186L112.097 63.8415Z" fill="#3F3D56"/>
<path opacity="0.1" d="M112.097 63.8415L97.5873 66.8092L97.2566 66.7776V50.2122L111.442 48.0849L112.097 63.8415Z" fill="black"/>
<path opacity="0.05" d="M111.442 48.1186L111.438 48.1228L97.2567 50.2122L84.5056 49.3318L100.115 46.6927L111.438 48.0133L111.442 48.0849V48.1186Z" fill="black"/>
<path d="M121.979 30.8077C121.826 32.1767 120.781 33.2804 120.393 34.5988C119.812 36.5892 120.815 38.727 122.196 40.2856C123.31 41.524 124.658 42.5292 126.163 43.2429C127.668 43.9565 129.299 44.3646 130.962 44.4433C131.451 44.4854 131.943 44.4317 132.412 44.2853C132.828 44.1157 133.204 43.8585 133.513 43.5313C134.549 42.4887 135.107 41.046 135.329 39.5906C135.55 38.1352 135.466 36.6545 135.379 35.1865C135.379 34.8827 135.323 34.5814 135.215 34.2977C135.074 34.0278 134.88 33.7892 134.644 33.5963C133.897 32.9098 133.074 32.3112 132.19 31.8123C131.811 31.6017 131.405 31.3911 131.163 31.0267C130.996 30.7365 130.888 30.4167 130.845 30.0852L130.573 28.7035C130.525 28.3052 130.389 27.9224 130.175 27.583C129.697 26.9385 128.78 26.8501 127.978 26.8185L125.029 26.7026C124.113 26.6668 122.908 26.4036 122.013 26.5847C121.171 26.7511 121.455 27.522 121.607 28.2212C121.826 29.067 121.951 29.9344 121.979 30.8077Z" fill="#FFC0C6"/>
<path opacity="0.1" d="M121.979 30.8077C121.826 32.1767 120.781 33.2804 120.393 34.5988C119.812 36.5892 120.815 38.727 122.196 40.2856C123.31 41.524 124.658 42.5292 126.163 43.2429C127.668 43.9565 129.299 44.3646 130.962 44.4433C131.451 44.4854 131.943 44.4317 132.412 44.2853C132.828 44.1157 133.204 43.8585 133.513 43.5313C134.549 42.4887 135.107 41.046 135.329 39.5906C135.55 38.1352 135.466 36.6545 135.379 35.1865C135.379 34.8827 135.323 34.5814 135.215 34.2977C135.074 34.0278 134.88 33.7892 134.644 33.5963C133.897 32.9098 133.074 32.3112 132.19 31.8123C131.811 31.6017 131.405 31.3911 131.163 31.0267C130.996 30.7365 130.888 30.4167 130.845 30.0852L130.573 28.7035C130.525 28.3052 130.389 27.9224 130.175 27.583C129.697 26.9385 128.78 26.8501 127.978 26.8185L125.029 26.7026C124.113 26.6668 122.908 26.4036 122.013 26.5847C121.171 26.7511 121.455 27.522 121.607 28.2212C121.826 29.067 121.951 29.9344 121.979 30.8077Z" fill="black"/>
<path d="M140.706 92.4693L139.455 106.185C139.128 109.782 138.796 113.395 138.155 116.946C137.945 118.169 137.675 119.387 137.367 120.594C136.512 123.945 135.272 127.22 134.872 130.655C134.859 130.754 134.848 130.866 134.838 130.956C134.756 131.714 134.684 132.481 134.417 133.189C134.206 133.713 133.909 134.191 133.692 134.709C133.271 135.746 133.204 136.891 133.151 138.014C131.633 137.157 129.97 136.586 128.245 136.329C127.403 136.205 126.487 136.118 125.929 135.487C125.297 134.8 125.371 133.749 125.476 132.826C125.807 129.962 126.137 127.099 126.466 124.237C126.575 123.006 126.787 121.786 127.098 120.589C127.211 120.191 127.348 119.8 127.487 119.408C127.679 118.869 127.873 118.329 128.018 117.775C128.22 116.885 128.359 115.983 128.435 115.073C128.774 112.192 129.183 109.317 129.541 106.438L129.56 106.286C130.097 101.922 130.505 97.5368 130.388 93.1411C130.371 92.4903 130.343 91.8395 130.301 91.1866C130.242 90.2409 130.156 89.7396 130.933 89.1478C131.799 88.4948 132.938 88.0378 133.928 87.6102C134.461 87.3785 140.329 85.2934 140.457 85.7525C140.73 86.7278 140.871 87.735 140.879 88.7476C140.89 89.9904 140.833 91.2329 140.706 92.4693Z" fill="#605D82"/>
<path opacity="0.1" d="M138.155 116.946C137.944 118.169 137.675 119.387 137.367 120.594C136.512 123.945 135.272 127.22 134.872 130.655C134.859 130.754 134.848 130.866 134.838 130.956C132.222 127.22 130.019 123.201 127.466 119.425C127.658 118.885 127.851 118.346 127.997 117.792C128.206 116.897 128.353 115.989 128.435 115.073C128.774 112.192 129.183 109.317 129.541 106.438L129.56 106.286C129.707 106.897 129.919 107.491 130.192 108.057C131.906 111.541 135.979 113.302 137.972 116.636C138.038 116.74 138.099 116.843 138.155 116.946Z" fill="black"/>
<path d="M116.929 86.317C117.015 89.1098 117.462 91.8795 117.908 94.6387L118.828 100.325C119.332 103.443 119.858 106.621 121.333 109.412C122.436 111.501 124.025 113.283 125.463 115.155C128.997 119.76 131.653 124.977 135.004 129.716C135.979 131.093 137.372 132.584 139.033 132.296C140.124 132.108 140.916 131.198 141.772 130.499C142.783 129.673 144 129.069 144.796 128.033C145.592 126.996 145.748 125.278 144.67 124.541C144.301 124.29 143.852 124.195 143.435 124.035C141.765 123.403 140.683 121.769 139.996 120.118C139.309 118.466 138.89 116.695 137.974 115.16C135.982 111.825 131.906 110.065 130.192 106.579C129.231 104.628 129.138 102.366 129.067 100.203L128.879 94.6618C128.858 94.0552 128.844 93.4255 129.09 92.8716C129.745 91.3972 131.725 91.2582 133.33 91.0707C135.15 90.8582 136.913 90.3022 138.526 89.4321C139.45 88.9329 140.352 88.2969 140.843 87.3701C141.293 86.5276 141.354 85.5356 141.407 84.5794L141.963 74.5348C142.012 73.6713 142.054 72.7761 141.753 71.9673C140.988 69.9327 138.418 69.2672 136.247 69.3641C132.207 69.5452 128.479 71.2828 124.663 72.4581C123.717 72.7488 122.767 73.0099 121.792 73.2058C120.949 73.3764 119.896 73.3069 119.088 73.5807C117.638 74.0694 117.674 77.2413 117.47 78.5556C117.048 81.1203 116.867 83.7187 116.929 86.317Z" fill="#605D82"/>
<path d="M138.486 132.721C138.842 133.081 138.958 133.608 139.05 134.105C139.565 136.864 139.833 139.663 139.851 142.469C139.828 142.731 139.879 142.994 140 143.227C140.101 143.365 140.237 143.474 140.394 143.543C141.424 144.034 142.618 143.349 143.478 142.597C145.068 141.205 146.414 139.335 146.504 137.222C146.527 136.679 146.466 136.129 146.561 135.592C146.7 134.796 147.166 134.103 147.574 133.408C148.273 132.223 148.838 130.964 149.259 129.654C149.415 129.162 149.52 128.542 149.133 128.199C148.997 128.091 148.842 128.01 148.676 127.961L144.021 126.234C143.617 126.084 142.614 128.66 142.456 128.943C142.066 129.631 141.679 130.021 140.897 130.181C140.116 130.341 139.151 130.109 138.406 130.507C137.142 131.179 137.772 132.003 138.486 132.721Z" fill="#535070"/>
<path d="M131.308 134.311C131.222 134.139 131.101 133.987 130.954 133.863C130.739 133.726 130.494 133.643 130.24 133.62C129.355 133.469 128.307 133.37 127.694 134.029C127.121 134.646 127.22 135.651 126.742 136.346C126.59 136.557 126.384 136.746 126.253 136.978C126.091 137.332 126.018 137.722 126.042 138.111C126.017 139.183 125.992 140.259 126.068 141.329C126.129 142.226 126.278 143.168 126.841 143.871C127.742 145 129.368 145.163 130.809 145.234L131.978 145.295C132.299 145.333 132.625 145.303 132.934 145.207C133.125 145.119 133.297 144.993 133.439 144.837C133.581 144.681 133.69 144.498 133.76 144.299C134.368 142.787 133.406 141.159 132.812 139.642C132.127 137.896 132.249 135.96 131.308 134.311Z" fill="#535070"/>
<path d="M121.642 23.0884C121.627 22.935 121.65 22.7804 121.708 22.6376C121.878 22.3364 122.325 22.427 122.662 22.5028C124.016 22.844 125.444 22.5344 126.841 22.6145C128.237 22.6945 129.808 23.3917 130.088 24.7607C131.101 24.0437 131.974 23.1471 132.664 22.1153C133.052 21.5361 133.389 20.8726 133.336 20.1776C133.26 19.175 132.42 18.4252 131.651 17.7891L129.334 15.8935C129.029 15.6136 128.677 15.3897 128.294 15.2322C127.759 15.0489 127.173 15.1374 126.609 15.1374C124.924 15.1374 123.117 14.3686 121.615 15.1374C120.983 15.4596 120.513 16.0136 120.059 16.5528L117.988 19.0044C117.831 19.1607 117.717 19.3542 117.655 19.5668C117.596 19.8658 117.75 20.1607 117.805 20.4619C117.902 21.0095 117.666 21.5951 117.847 22.1216C118.148 22.9936 119.21 23.1178 119.858 23.6191C120.099 23.8045 120.478 24.4384 120.766 24.43C121.274 24.4195 121.628 23.4928 121.642 23.0884Z" fill="#3F3D56"/>
<path d="M125.156 30.319C128.82 30.319 131.79 27.3486 131.79 23.6844C131.79 20.0202 128.82 17.0498 125.156 17.0498C121.491 17.0498 118.521 20.0202 118.521 23.6844C118.521 27.3486 121.491 30.319 125.156 30.319Z" fill="#FFC0C6"/>
<path d="M126.71 38.2026C126.485 37.5595 126.062 37.0045 125.501 36.6176C124.941 36.2307 124.272 36.0319 123.591 36.05C123.395 36.0873 123.193 36.0614 123.013 35.9763C122.912 35.8985 122.83 35.7974 122.775 35.6814C122.373 34.9553 122.049 34.1886 121.809 33.3941C121.703 33.0423 121.558 32.6274 121.202 32.5368C120.916 32.4631 120.623 32.6485 120.431 32.8738C120.261 33.1157 120.077 33.3471 119.879 33.5668C119.037 34.3124 117.563 33.6321 116.68 34.3166C116.535 34.4282 116.415 34.5714 116.259 34.6746C116.107 34.767 115.943 34.8379 115.772 34.8853C114.059 35.4426 112.38 36.0987 110.743 36.8504C111.332 40.3972 111.935 44.0115 113.316 47.3288C113.974 48.9085 114.717 50.4565 115.244 52.0846C116.411 55.6926 116.461 59.5533 116.476 63.3466C116.476 65.9414 116.476 68.5911 115.633 71.0469C115.444 71.6029 115.212 72.1548 115.159 72.7319C115.107 73.309 115.279 73.9619 115.753 74.3073C116.028 74.4883 116.342 74.5989 116.67 74.6296C118.125 74.8402 119.591 74.4569 121.023 74.1241C124.863 73.2353 128.78 72.7256 132.687 72.2285L139.238 71.386C139.708 71.3531 140.167 71.2339 140.594 71.0343C141.793 70.3792 141.906 68.5763 141.161 67.4305C140.805 66.8808 140.301 66.4301 140 65.8488C139.699 65.2674 139.676 64.4502 140.192 64.0479C141.245 63.2265 140.929 61.7037 140.98 60.3726C141.12 56.6488 141.101 52.9278 140.923 49.2096C140.869 48.4386 140.856 47.6652 140.885 46.8928C140.958 45.5827 141.283 44.3 141.607 43.0258L143.598 35.1907C143.077 34.3692 142.081 33.8469 141.14 33.611C140.198 33.3751 139.215 33.3056 138.286 33.017C136.39 32.4273 134.688 30.9319 132.702 31.0709C132.551 31.0736 132.403 31.1095 132.268 31.1762C131.822 31.4311 131.891 32.0756 131.864 32.5895C131.801 33.7289 130.962 34.6789 130.04 35.3465C129.117 36.0142 128.06 36.4986 127.211 37.259C127.064 37.3701 126.943 37.5122 126.856 37.6752C126.769 37.8382 126.719 38.0182 126.71 38.2026Z" fill="#3F3D56"/>
<path d="M100.422 45.6354C99.9829 45.9211 99.5158 46.1617 99.028 46.3536C98.5647 46.5369 98.0697 46.6822 97.6906 47.0023C97.5029 47.1652 97.3453 47.3598 97.2251 47.5773C97.0007 47.9756 96.8872 48.4268 96.8965 48.8839C96.9059 49.341 97.0377 49.7871 97.2782 50.1759C97.5187 50.5647 97.8592 50.8818 98.264 51.0941C98.6689 51.3065 99.1233 51.4064 99.5799 51.3833C100.189 51.3517 100.764 51.1053 101.322 50.863L106.002 48.8263C106.794 48.483 107.649 48.0828 108.024 47.3035C108.067 47.2306 108.083 47.145 108.07 47.0613C108.034 46.9695 107.965 46.8945 107.876 46.8507C106.822 46.1645 105.899 45.2941 105.153 44.2811C104.961 44.0199 104.732 43.4049 104.454 43.247C103.464 42.6972 101.216 45.1215 100.422 45.6354Z" fill="#FFC0C6"/>
<path d="M150.449 43.9821L152.174 45.9535C152.545 46.3747 152.916 46.796 153.253 47.2509C154.082 48.393 154.747 49.6458 155.228 50.9726C155.603 51.9562 155.915 53.0051 155.784 54.0498C155.697 54.5854 155.552 55.11 155.353 55.6147C155.037 56.5849 154.644 57.5286 154.179 58.437C153.791 59.1263 153.353 59.7859 152.867 60.4105C151.531 62.1809 150.069 63.8527 148.493 65.4128C147.903 65.9962 147.65 66.9419 147.399 67.7296C146.926 69.185 145.799 70.3203 144.71 71.3945C144.36 71.7647 143.972 72.0978 143.553 72.3886C142.927 72.7931 142.193 73.0014 141.447 72.9867C141.122 72.9886 140.8 72.9219 140.502 72.7909C139.756 72.437 139.377 71.5756 139.299 70.7542C139.23 70.0078 139.355 69.2562 139.661 68.5721C140.651 66.3796 143.193 65.4297 144.99 63.8289C146.043 62.8917 146.85 61.7122 147.646 60.5474C148.185 59.8194 148.636 59.0296 148.988 58.1948C149.388 57.1227 149.232 55.8548 149.584 54.768C149.731 54.3067 150.005 53.8918 150.154 53.4348C150.304 52.9777 150.354 52.4364 150.074 52.0425C149.864 51.7908 149.596 51.5941 149.293 51.4696C148.145 50.8883 146.86 50.1385 146.641 48.8685C146.553 48.1651 146.737 47.4548 147.155 46.8823C147.571 46.3171 148.057 45.8075 148.602 45.3658C149.101 44.9151 149.946 44.4159 150.449 43.9821Z" fill="#FFC0C6"/>
<path d="M99.3144 48.3861C99.0111 47.7711 98.6299 47.1435 98.0149 46.8381C97.7156 46.7089 97.3931 46.6423 97.0671 46.6423C96.7411 46.6423 96.4186 46.7089 96.1193 46.8381C95.5233 47.0957 94.965 47.433 94.4596 47.8406L92.9726 48.938C92.6356 49.1592 92.3374 49.4346 92.0901 49.7531C91.8543 50.1395 91.6982 50.5691 91.631 51.0168C91.4204 52.0425 91.2498 53.0977 91.3972 54.1361C91.6331 55.8211 92.6441 57.2786 93.7561 58.5591C94.4512 59.3553 95.3105 60.1599 96.3678 60.1957C96.8249 60.2104 97.3325 60.0293 97.522 59.6143C97.5881 59.4495 97.6231 59.2738 97.6252 59.0962C97.739 57.2259 97.0692 55.3998 96.2899 53.6959C96.0793 53.2325 95.8518 52.7523 95.8687 52.2447C95.8622 52.1585 95.8844 52.0726 95.9319 52.0004C95.9987 51.9303 96.0883 51.8863 96.1846 51.8761C97.2525 51.6655 99.0933 52.4953 99.841 51.3096C100.325 50.526 99.6599 49.0833 99.3144 48.3861Z" fill="#FFC0C6"/>
<path d="M121.293 21.0011C121.28 20.8476 121.303 20.6932 121.36 20.5503C121.531 20.2471 121.977 20.3397 122.314 20.4155C123.669 20.7568 125.097 20.4471 126.493 20.5272C127.889 20.6072 129.459 21.3044 129.741 22.6734C130.753 21.9553 131.626 21.0589 132.317 20.028C132.704 19.4467 133.041 18.7832 132.989 18.0882C132.913 17.0856 132.07 16.3358 131.304 15.7018L128.987 13.8062C128.682 13.5263 128.331 13.3024 127.948 13.1449C127.411 12.9616 126.828 13.0501 126.263 13.0501C124.578 13.0501 122.771 12.2813 121.27 13.0501C120.638 13.3724 120.168 13.9263 119.713 14.4655L117.641 16.9171C117.485 17.0737 117.371 17.2672 117.31 17.4795C117.251 17.7786 117.405 18.0734 117.459 18.3746C117.556 18.9222 117.32 19.5078 117.502 20.0322C117.803 20.9063 118.864 21.0306 119.513 21.5318C119.753 21.7172 120.132 22.3512 120.421 22.3427C120.92 22.3322 121.274 21.4055 121.293 21.0011Z" fill="#3F3D56"/>
<path d="M107.202 39.182C106.935 39.3556 106.7 39.5744 106.507 39.8286C106.265 40.1972 106.214 40.671 106.006 41.0502C105.559 41.88 104.513 42.177 103.862 42.8573C103.756 42.9503 103.683 43.0741 103.651 43.2111C103.647 43.3964 103.709 43.5771 103.826 43.7209L106.973 48.6662C108.026 48.7589 109.024 48.1018 110.073 48.1902C110.463 48.2218 110.865 48.3566 111.24 48.2408C111.508 48.1214 111.759 47.9678 111.987 47.7837C112.619 47.3878 113.445 47.3414 113.969 46.8212C114.494 46.301 114.538 45.5364 114.532 44.8266C114.541 44.2106 114.478 43.5956 114.344 42.9942C113.881 41.0986 112.43 39.6369 111.52 37.9561C111.075 37.1368 110.835 36.6587 109.898 37.2211C108.961 37.7834 108.089 38.5332 107.202 39.182Z" fill="#3F3D56"/>
<path d="M145.411 36.6819C146.002 37.0658 146.536 37.5326 146.995 38.0677C147.473 38.6849 147.745 39.4431 148.206 40.075C148.667 40.7068 149.259 41.1618 149.764 41.7262C150.533 42.5814 151.053 43.6218 151.563 44.656C150.315 46.2795 148.956 47.8137 147.494 49.2475C147.331 49.4393 147.116 49.5797 146.875 49.6519C146.711 49.6695 146.546 49.6462 146.394 49.584C146.242 49.5219 146.107 49.4229 146.003 49.296C145.775 49.0601 145.615 48.7652 145.398 48.5188C144.887 47.9917 144.206 47.6626 143.475 47.59C142.751 47.5194 142.022 47.5088 141.295 47.5584C141.136 47.5773 140.974 47.5502 140.83 47.4804C140.722 47.4066 140.635 47.3065 140.577 47.1898C139.735 45.7407 139.998 43.9209 140.299 42.2654L140.988 38.4742C141.088 37.7504 141.282 37.0425 141.563 36.368C141.824 35.8099 142.405 34.8621 143.126 35.0306C143.846 35.1991 144.802 36.2438 145.411 36.6819Z" fill="#3F3D56"/>
<path d="M85.348 64.4734L70.8383 67.4411L70.5076 67.4095L57.7566 66.1226V49.9637L73.3658 47.3246L84.6888 48.6452L84.693 48.7168V48.7505L85.348 64.4734Z" fill="#1889B9"/>
<path opacity="0.1" d="M85.3482 64.4734L70.8385 67.4411L70.5078 67.4095V50.8441L84.6932 48.7168L85.3482 64.4734Z" fill="black"/>
<path opacity="0.05" d="M84.693 48.7505L84.6888 48.7547L70.5076 50.8441L57.7566 49.9637L73.3658 47.3246L84.6888 48.6452L84.693 48.7168V48.7505Z" fill="black"/>
<path d="M92.9305 48.4661L78.4208 51.4359L78.0901 51.4022L65.3391 50.1153V33.9564L80.9483 31.3173L92.2713 32.6379L92.2755 32.7095V32.7432L92.9305 48.4661Z" fill="#3F3D56"/>
<path opacity="0.1" d="M92.9305 48.4661L78.4208 51.4359L78.0901 51.4022V34.8368L92.2755 32.7095L92.9305 48.4661Z" fill="black"/>
<path opacity="0.05" d="M92.2755 32.7432L92.2713 32.7474L78.0901 34.8368L65.3391 33.9564L80.9483 31.3173L92.2713 32.6379L92.2755 32.7095V32.7432Z" fill="black"/>
</g>
<defs>
<clipPath id="clip0_496_1799">
<rect width="200" height="148.204" fill="white"/>
</clipPath>
</defs>
</svg>
